<svg xmlns="http://www.w3.org/2000/svg" xmlns:xlink="http://www.w3.org/1999/xlink" xmlns:sketch="http://www.bohemiancoding.com/sketch/ns" width="192px" height="44px" viewBox="0 0 192 44" version="1.1"><!-- Generator: Sketch 3.0 (7574) - http://www.bohemiancoding.com/sketch --><title>Slice 1</title><description>Created with Sketch.</description><defs/><g stroke="none" stroke-width="1" fill="none" fill-rule="evenodd" sketch:type="MSPage"><g sketch:type="MSLayerGroup"><g sketch:type="MSShapeGroup"><g><g><g><g><path d="M5.07030671 0.3 C3.40819892 0.3 2.9 0.2 1.2 0.1 C1.16796668 0.2 1.1 1.1 1.2 1.3 C1.74609113 1.3 3.5 1.6 3.7 2 C3.87792504 2.4 3.8 2.8 3.8 3.2 C3.80565948 4.3 3.6 13.1 3.3 19.5 C3.26366781 20.1 3.1 21.5 2.9 22 C2.50487947 22.7 0.3 23 -0.1 23 C-0.277344439 23.3 -0.2 24 -0.1 24.1 C1.52929446 24.1 2.6 23.9 4.2 23.9 C5.82909505 23.9 6.9 24.1 8.4 24.1 C8.46678785 23.9 8.5 23.1 8.3 22.9 C8.03319451 22.9 5.5 22.7 5.3 22 C5.2509706 21.8 5.2 20.8 5.2 20.2 C5.28710338 17.2 5.4 11.7 5.6 4 L14.1035012 24 C14.2118996 24 14.3 24.1 14.4 24.1 C14.9345551 24 15.7 22.7 15.9 22.4 C17.2470529 18.9 21.4 8 22.9 4.2 C22.9560318 4.1 23 4 23.1 4 C23.3173596 4 23.4 4.7 23.4 4.8 C23.4618907 7.7 23.7 16.3 23.8 18.9 C23.750953 19.4 23.8 20.6 23.8 21 C23.8232185 21.4 23.7 22.2 23.5 22.4 C23.1366957 22.8 21.5 22.9 21.1 22.9 C20.9325963 23.2 21 24 21.1 24.1 C22.775368 24.1 24.4 23.9 26.1 23.9 C27.6894258 23.9 29.3 24.1 30.7 24.1 C30.7968447 23.9 30.8 23.2 30.7 22.9 C30.3632513 22.9 28.4 22.8 28.2 22.3 C27.8700897 21.4 27.9 20.1 27.8 18.7 C27.653293 14.1 27.4 5.8 27.4 3.3 C27.3642308 2.5 27.4 2.1 27.7 1.8 C27.978488 1.5 29.5 1.3 29.9 1.3 C29.9657908 1.2 29.9 0.2 29.8 0.1 C28.628878 0.2 26.9 0.3 25.6 0.3 C24.9433346 0.3 23 0.2 22.3 0.2 C22.2695091 0.2 21.5 2.8 20.9 4.3 C19.017559 9.2 17.1 14.2 16 17 C15.9824057 17 15.8 17.1 15.8 17.1 C15.765609 17.1 15.7 17.1 15.7 17.1 C13.0195179 10.8 9.3 2.4 8.4 0.1 C7.31053895 0.2 6.3 0.3 5.1 0.3 L5.07030671 0.3 L5.07030671 0.3 Z M49.5859315 0.3 C48.1406204 0.3 46.3 0.2 44.9 0.1 C44.7441393 0.3 44.7 1.1 44.9 1.3 C45.3222637 1.3 47.1 1.5 47.3 1.9 C47.4902304 2.5 47.5 3.6 47.5 4.9 L47.5263632 19.3 C47.5263632 20.6 47.5 21.7 47.3 22.3 C47.1289026 22.8 45.3 23 44.9 23 C44.7441393 23.2 44.7 23.9 44.9 24.1 C46.3339815 24 48.1 23.9 49.5 23.9 C50.9951099 23.9 52.8 24 54.2 24.1 C54.391591 23.9 54.4 23.2 54.2 23 C53.8134666 23 52 22.8 51.9 22.3 C51.6454999 21.7 51.6 20.6 51.6 19.3 L51.6454999 4.9 C51.6454999 3.6 51.6 2.5 51.9 1.9 C52.0068277 1.5 53.8 1.3 54.2 1.3 C54.391591 1.1 54.4 0.3 54.2 0.1 C52.8017488 0.2 51 0.3 49.6 0.3 L49.5859315 0.3 L49.5859315 0.3 Z M75.6376874 19.3 L75.6376874 4.9 C75.6376874 3.6 75.6 2.5 75.9 1.9 C75.9990152 1.5 77.8 1.3 78.2 1.3 C78.3837785 1.1 78.4 0.3 78.2 0.1 C76.7939363 0.2 75 0.3 73.6 0.3 C72.1328079 0.3 70.3 0.2 68.9 0.1 C68.7363268 0.3 68.7 1.1 68.9 1.3 C69.3144512 1.3 71.1 1.5 71.3 1.9 C71.4824179 2.5 71.5 3.6 71.5 4.9 L71.5185507 19.3 C71.5185507 20.6 71.5 21.7 71.3 22.3 C71.1210901 22.8 69.3 22.9 68.9 22.9 C68.7363268 23.1 68.7 23.9 68.9 24.1 C69.8203101 24.1 71.5 24 73.6 24 C78.4560441 24 83.6 24.1 86 24.1 C86.2607241 22.5 87.3 20 88 18 C87.8505664 17.9 87.3 17.8 86.9 17.8 C86.6943175 17.8 86.5 17.9 86.4 18 C85.8632636 19.8 85.2 20.9 84.3 21.5 C83.4062347 22.3 81.9 22.6 80.6 22.6 L78.311513 22.6 C77.0829985 22.6 76.2 22.5 75.9 22 C75.6015546 21.6 75.6 19.7 75.6 19.3 L75.6376874 19.3 L75.6376874 19.3 Z M104.833002 0.3 C103.387691 0.3 101.5 0.2 100.1 0.1 C99.955077 0.3 100 1.1 100.1 1.3 C100.533202 1.3 102.4 1.5 102.5 1.9 C102.773434 2.5 102.7 3.6 102.7 4.9 L102.737301 14 C102.737301 17.4 103.5 19.8 105.1 21.5 C106.74804 23.3 109.3 24.2 112.1 24.2 C117.55174 24.2 121.8 21.1 121.8 13.8 L121.815408 5.5 C121.815408 4 122 2.7 122.2 2 C122.538064 1.5 124.6 1.2 125.1 1.2 C125.248022 0.9 125.2 0.3 125.1 0.1 C123.477516 0.2 122.6 0.3 121 0.3 C119.358379 0.3 118.3 0.2 116.7 0.1 C116.612288 0.3 116.6 1 116.8 1.2 C117.262678 1.2 119.1 1.5 119.4 2 C119.719707 2.7 119.8 4.1 119.8 5.5 L119.828105 13.4 C119.75584 19.7 116.7 21.9 113.4 21.9 C111.625965 21.9 109.5 21.4 108.2 19.1 C107.181633 17.4 106.9 15.4 106.9 12.7 L106.856438 4.9 C106.856438 3.6 106.9 2.5 107.1 1.9 C107.217766 1.5 109.1 1.3 109.5 1.3 C109.638662 1.1 109.6 0.3 109.5 0.1 C108.04882 0.2 106.3 0.3 104.8 0.3 L104.833002 0.3 L104.833002 0.3 Z M146.494132 -0.1 C142.808588 -0.1 139.1 2.5 139.1 6.3 C139.123045 10 142.2 11.8 144.9 13.5 C147.072256 14.8 150 16.2 150 19 C149.962878 21.7 148.1 22.9 146.1 22.9 C142.0498 22.9 140.4 19 140.1 17.4 C140.09863 17.1 139.9 17 139.7 17 C139.484373 17 138.8 17.3 138.7 17.5 C138.725584 18.2 139.1 21.5 139.5 23.3 C141.435543 23.8 143.9 24.4 146.2 24.4 C150.107409 24.4 153.9 21.7 153.9 17.7 C153.901351 13.8 150.5 12 148.1 10.5 C145.771476 9 143 7.4 143 4.8 C142.953119 2.7 144.1 1.3 146.5 1.3 C149.276355 1.3 151 4.5 151.3 6.4 C151.335924 6.7 152.1 6.7 152.3 6.7 C152.419907 6.7 152.6 6.6 152.7 6.4 C152.600571 4.8 152.5 2.8 152.3 0.9 C149.962878 0.4 148.7 -0.1 146.5 -0.1 L146.494132 -0.1 L146.494132 -0.1 Z M168.535155 0.1 C168.390624 0.3 168.4 1.1 168.5 1.3 C168.968748 1.3 170.8 1.5 170.9 2 C171.136715 2.6 171.2 3.7 171.2 5 L171.172848 19.2 C171.172848 20.5 171.1 21.6 170.9 22.3 C170.775387 22.7 169 22.9 168.5 22.9 C168.390624 23.1 168.4 23.9 168.5 24.1 C169.980466 24 171.8 23.9 173.2 23.9 C174.641594 23.9 176.4 24 177.9 24.1 C178.038075 23.9 178 23.1 177.9 22.9 C177.459951 22.9 175.7 22.7 175.5 22.3 C175.291984 21.6 175.3 20.5 175.3 19.2 L175.291984 12.7 C175.291984 12.7 175.3 12.6 175.3 12.6 C175.436515 12.5 175.8 12.4 180.4 12.4 C182.012681 12.4 183.7 12.5 185.2 12.5 C185.228498 12.5 185.3 12.6 185.3 12.7 L185.300764 19.2 C185.300764 20.5 185.3 21.6 185 22.3 C184.903303 22.7 183.1 22.9 182.7 22.9 C182.51854 23.1 182.5 23.9 182.7 24.1 C184.108382 24 185.9 23.9 187.3 23.9 C188.76951 23.9 190.6 24 192 24.1 C192.165992 23.9 192.2 23.1 192 22.9 C191.587867 22.9 189.8 22.7 189.6 22.3 C189.4199 21.6 189.4 20.5 189.4 19.2 L189.4199 5 C189.4199 3.7 189.4 2.6 189.6 2 C189.781228 1.5 191.6 1.3 192 1.3 C192.165992 1.1 192.2 0.3 192 0.1 C190.576149 0.2 188.8 0.3 187.4 0.3 C185.915021 0.3 184.1 0.2 182.7 0.1 C182.51854 0.3 182.5 1.1 182.7 1.3 C183.096664 1.3 184.9 1.5 185 2 C185.264631 2.6 185.3 3.7 185.3 5 L185.300764 10.7 C185.300764 10.7 185.2 10.8 185.2 10.8 C183.783187 10.8 181.9 10.9 180.4 10.9 C178.543934 10.9 176.9 10.8 175.3 10.8 C175.328117 10.8 175.3 10.8 175.3 10.7 L175.291984 5 C175.291984 3.7 175.3 2.6 175.5 2 C175.653312 1.5 177.5 1.3 177.9 1.3 C178.038075 1.1 178 0.3 177.9 0.1 C176.448233 0.2 174.7 0.3 173.2 0.3 C171.787105 0.3 170 0.2 168.5 0.1 L168.535155 0.1 L168.535155 0.1 Z" fill="#FF3878"/><path d="M9.0351562 44 L7.51171875 44 L6.05859375 38.9 C5.99609344 38.7 5.9 38.3 5.8 37.9 C5.73046828 37.5 5.7 37.2 5.7 37.1 C5.61523418 37.3 5.6 37.6 5.5 38 C5.37597612 38.4 5.3 38.7 5.2 38.9 L3.82617188 44 L2.30273438 44 L1.1953125 39.7 L0.0703125 35.4 L1.5 35.4 L2.72460938 40.4 C2.91601658 41.2 3.1 41.9 3.1 42.5 C3.17773459 42.2 3.2 41.8 3.3 41.4 C3.41406293 41 3.5 40.7 3.6 40.4 L4.95703125 35.4 L6.34570312 35.4 L7.77539062 40.5 C7.91211006 40.9 8.1 41.6 8.2 42.5 C8.26757842 42 8.4 41.3 8.6 40.4 L9.8496094 35.4 L11.2675781 35.4 L9.0351562 44 L9.0351562 44 Z M18.9261718 44 L14.0804687 44 L14.0804687 35.4 L18.9261718 35.4 L18.9261718 36.6 L15.4808593 36.6 L15.4808593 38.9 L18.7093749 38.9 L18.7093749 40.1 L15.4808593 40.1 L15.4808593 42.8 L18.9261718 42.8 L18.9261718 44 L18.9261718 44 Z M22.3777342 35.4 L24.9207029 35.4 C26.1003963 35.4 27 35.6 27.5 35.9 C28.0037134 36.3 28.3 36.8 28.3 37.6 C28.2664061 38.1 28.1 38.5 27.9 38.8 C27.6218735 39.2 27.3 39.4 26.8 39.5 L26.7664061 39.5 C27.3679716 39.6 27.8 39.8 28.1 40.2 C28.376759 40.5 28.5 41 28.5 41.5 C28.5183592 42.3 28.2 42.9 27.7 43.3 C27.1755831 43.8 26.4 44 25.5 44 L22.3777342 44 L22.3777342 35.4 L22.3777342 35.4 Z M23.7781248 39 L25.1257811 39 C25.7117215 39 26.1 38.9 26.4 38.7 C26.6785168 38.5 26.8 38.2 26.8 37.7 C26.8132811 37.3 26.7 37.1 26.4 36.9 C26.0857405 36.7 25.6 36.6 25 36.6 L23.7781248 36.6 L23.7781248 39 L23.7781248 39 Z M23.7781248 40.1 L23.7781248 42.8 L25.2664061 42.8 C25.8523465 42.8 26.3 42.7 26.6 42.5 C26.8923841 42.3 27 41.9 27 41.4 C27.0417967 41 26.9 40.6 26.6 40.4 C26.2800764 40.2 25.8 40.1 25.2 40.1 L23.7781248 40.1 L23.7781248 40.1 Z M40.2613277 36.5 C39.4566362 36.5 38.8 36.8 38.4 37.4 C37.9019504 37.9 37.7 38.7 37.7 39.7 C37.671484 40.8 37.9 41.6 38.3 42.1 C38.7798846 42.7 39.4 42.9 40.3 42.9 C40.6246108 42.9 41 42.9 41.3 42.8 C41.6558607 42.7 42 42.6 42.4 42.5 L42.3765621 43.7 C41.7046838 44 40.9 44.1 40.1 44.1 C38.8374933 44.1 37.9 43.7 37.2 43 C36.5308556 42.2 36.2 41.1 36.2 39.7 C36.1949215 38.8 36.4 38 36.7 37.4 C37.0103528 36.7 37.5 36.2 38.1 35.8 C38.716409 35.5 39.4 35.3 40.3 35.3 C41.1480509 35.3 42 35.5 42.7 35.9 L42.1949215 37 C41.9058575 36.9 41.6 36.8 41.3 36.7 C40.9556621 36.6 40.6 36.5 40.3 36.5 L40.2613277 36.5 L40.2613277 36.5 Z M53.1874995 39.7 C53.1874995 41.1 52.8 42.2 52.1 43 C51.444332 43.7 50.5 44.1 49.2 44.1 C47.8867118 44.1 46.9 43.7 46.2 43 C45.506832 42.2 45.2 41.1 45.2 39.7 C45.1601558 38.3 45.5 37.2 46.2 36.4 C46.9033233 35.7 47.9 35.3 49.2 35.3 C50.4648496 35.3 51.4 35.7 52.1 36.5 C52.8398467 37.2 53.2 38.3 53.2 39.7 L53.1874995 39.7 L53.1874995 39.7 Z M46.648437 39.7 C46.648437 40.8 46.9 41.6 47.3 42.1 C47.7128923 42.6 48.3 42.9 49.2 42.9 C50.0117224 42.9 50.6 42.7 51.1 42.1 C51.4873063 41.6 51.7 40.8 51.7 39.7 C51.6992183 38.7 51.5 37.9 51.1 37.3 C50.6494115 36.8 50 36.5 49.2 36.5 C48.3515578 36.5 47.7 36.8 47.3 37.3 C46.8623021 37.9 46.6 38.7 46.6 39.7 L46.648437 39.7 L46.648437 39.7 Z M62.2992182 38 C62.2992182 38.9 62 39.6 61.4 40.1 C60.8343715 40.6 60 40.8 58.9 40.8 L58.0277338 40.8 L58.0277338 44 L56.6273432 44 L56.6273432 35.4 L59.0941401 35.4 C60.1644579 35.4 61 35.7 61.5 36.1 C62.0326193 36.5 62.3 37.2 62.3 38 L62.2992182 38 L62.2992182 38 Z M58.0277338 39.6 L58.7718744 39.6 C59.490628 39.6 60 39.5 60.4 39.2 C60.6898449 39 60.9 38.6 60.9 38.1 C60.8578119 37.6 60.7 37.2 60.4 37 C60.1058573 36.7 59.6 36.6 59 36.6 L58.0277338 36.6 L58.0277338 39.6 L58.0277338 39.6 Z M68.0300775 39.3 L70.0574212 35.4 L71.5808587 35.4 L68.7273431 40.7 L68.7273431 44 L67.3210931 44 L67.3210931 40.7 L64.4792962 35.4 L66.0027337 35.4 L68.0300775 39.3 L68.0300775 39.3 Z M82.2160149 44 L80.6925774 44 L79.2394524 38.9 C79.176952 38.7 79.1 38.3 79 37.9 C78.9113269 37.5 78.9 37.2 78.8 37.1 C78.7960928 37.3 78.7 37.6 78.6 38 C78.5568347 38.4 78.5 38.7 78.4 38.9 L77.0070305 44 L75.483593 44 L74.3761711 39.7 L73.2511711 35.4 L74.6808586 35.4 L75.905468 40.4 C76.0968752 41.2 76.2 41.9 76.3 42.5 C76.3585932 42.2 76.4 41.8 76.5 41.4 C76.5949215 41 76.7 40.7 76.7 40.4 L78.1378899 35.4 L79.5265617 35.4 L80.9562492 40.5 C81.0929687 40.9 81.2 41.6 81.4 42.5 C81.448437 42 81.6 41.3 81.8 40.4 L83.030468 35.4 L84.4484367 35.4 L82.2160149 44 L82.2160149 44 Z M88.6617179 40.6 L88.6617179 44 L87.2613273 44 L87.2613273 35.4 L89.6812491 35.4 C90.7867234 35.4 91.6 35.6 92.1 36.1 C92.6675799 36.5 92.9 37.1 92.9 37.9 C92.9332023 39 92.4 39.8 91.3 40.2 L93.6890616 44 L92.0953116 44 L90.0445304 40.6 L88.6617179 40.6 L88.6617179 40.6 Z M88.6617179 39.4 L89.6343741 39.4 C90.2867212 39.4 90.8 39.3 91.1 39.1 C91.3453131 38.8 91.5 38.5 91.5 38 C91.491796 37.5 91.3 37.1 91 36.9 C90.7007788 36.7 90.2 36.6 89.6 36.6 L88.6617179 36.6 L88.6617179 39.4 L88.6617179 39.4 Z M96.531249 44 L96.531249 35.4 L97.9316397 35.4 L97.9316397 44 L96.531249 44 L96.531249 44 Z M104.752343 44 L103.351952 44 L103.351952 36.6 L100.832421 36.6 L100.832421 35.4 L107.271874 35.4 L107.271874 36.6 L104.752343 36.6 L104.752343 44 L104.752343 44 Z M110.184374 44 L110.184374 35.4 L111.584764 35.4 L111.584764 44 L110.184374 44 L110.184374 44 Z M122.583202 44 L120.866405 44 L116.653514 37.2 L116.606639 37.2 L116.635936 37.6 C116.690624 38.3 116.7 38.9 116.7 39.5 L116.717968 44 L115.446483 44 L115.446483 35.4 L117.145702 35.4 L121.346874 42.2 L121.38203 42.2 C121.374217 42.1 121.4 41.8 121.3 41.2 C121.311717 40.7 121.3 40.2 121.3 39.9 L121.299999 35.4 L122.583202 35.4 L122.583202 44 L122.583202 44 Z M129.948827 39.4 L133.101171 39.4 L133.101171 43.7 C132.585543 43.8 132.1 43.9 131.6 44 C131.141207 44.1 130.6 44.1 130.1 44.1 C128.780852 44.1 127.8 43.7 127.1 43 C126.374605 42.2 126 41.1 126 39.7 C126.023046 38.3 126.4 37.3 127.2 36.5 C128.005471 35.7 129.1 35.3 130.5 35.3 C131.382425 35.3 132.2 35.5 133 35.8 L132.538671 37 C131.843355 36.7 131.1 36.5 130.5 36.5 C129.538666 36.5 128.8 36.8 128.3 37.4 C127.753512 37.9 127.5 38.7 127.5 39.7 C127.487889 40.8 127.7 41.6 128.2 42.1 C128.684181 42.7 129.4 42.9 130.3 42.9 C130.72422 42.9 131.2 42.9 131.7 42.8 L131.724217 40.6 L129.948827 40.6 L129.948827 39.4 L129.948827 39.4 Z" fill="#3D3D3D"/></g></g></g></g></g></g></g></svg>