<?xml version="1.0" encoding="UTF-8" standalone="no"?>
<svg width="244px" height="244px" viewBox="0 0 244 244" version="1.1" xmlns="http://www.w3.org/2000/svg" xmlns:xlink="http://www.w3.org/1999/xlink" xmlns:sketch="http://www.bohemiancoding.com/sketch/ns">
    <!-- Generator: Sketch 3.0 (7574) - http://www.bohemiancoding.com/sketch -->
    <title>sprite-ikony</title>
    <description>Created with Sketch.</description>
    <defs></defs>
    <g id="Page-1" stroke="none" stroke-width="1" fill="none" fill-rule="evenodd" sketch:type="MSPage">
        <g id="Group" sketch:type="MSLayerGroup" transform="translate(0.000000, 40.000000)" fill="#000000">
            <g id="icon-list-ul-link" sketch:type="MSShapeGroup">
                <g id="icon-list-ul">
                    <path d="M6.4284375,21.25728 C6.4284375,22.17184 6.1159375,22.94912 5.4909375,23.58912 C4.8659375,24.22912 4.106875,24.54912 3.21375,24.54912 C2.320625,24.54912 1.5615625,24.22912 0.9365625,23.58912 C0.3115625,22.94912 -0.0009375,22.17184 -0.0009375,21.25728 C-0.0009375,20.34272 0.3115625,19.56544 0.9365625,18.92544 C1.5615625,18.28544 2.320625,17.96544 3.21375,17.96544 C4.106875,17.96544 4.8659375,18.28544 5.4909375,18.92544 C6.1159375,19.56544 6.4284375,20.34272 6.4284375,21.25728 L6.4284375,21.25728 Z M6.4284375,12.48 C6.4284375,13.39456 6.1159375,14.17184 5.4909375,14.81184 C4.8659375,15.45184 4.106875,15.77184 3.21375,15.77184 C2.320625,15.77184 1.5615625,15.45184 0.9365625,14.81184 C0.3115625,14.17184 -0.0009375,13.39456 -0.0009375,12.48 C-0.0009375,11.56544 0.3115625,10.78816 0.9365625,10.14816 C1.5615625,9.50816 2.320625,9.18816 3.21375,9.18816 C4.106875,9.18816 4.8659375,9.50816 5.4909375,10.14816 C6.1159375,10.78816 6.4284375,11.56544 6.4284375,12.48 L6.4284375,12.48 Z M30,19.61184 L30,22.90368 C30,23.05216 29.946875,23.1808 29.840625,23.2896 C29.734375,23.3984 29.60875,23.4528 29.46375,23.4528 L9.106875,23.4528 C8.961875,23.4528 8.83625,23.3984 8.73,23.2896 C8.62375,23.1808 8.570625,23.05216 8.570625,22.90368 L8.570625,19.61184 C8.570625,19.46336 8.62375,19.33472 8.73,19.22592 C8.83625,19.11712 8.961875,19.06272 9.106875,19.06272 L29.46375,19.06272 C29.60875,19.06272 29.734375,19.11712 29.840625,19.22592 C29.946875,19.33472 30,19.46336 30,19.61184 L30,19.61184 Z M6.4284375,3.70272 C6.4284375,4.61728 6.1159375,5.39456 5.4909375,6.03456 C4.8659375,6.67456 4.106875,6.99456 3.21375,6.99456 C2.320625,6.99456 1.5615625,6.67456 0.9365625,6.03456 C0.3115625,5.39456 -0.0009375,4.61728 -0.0009375,3.70272 C-0.0009375,2.78816 0.3115625,2.01088 0.9365625,1.37088 C1.5615625,0.73088 2.320625,0.41088 3.21375,0.41088 C4.106875,0.41088 4.8659375,0.73088 5.4909375,1.37088 C6.1159375,2.01088 6.4284375,2.78816 6.4284375,3.70272 L6.4284375,3.70272 Z M30,10.83456 L30,14.1264 C30,14.27488 29.946875,14.40352 29.840625,14.51232 C29.734375,14.62112 29.60875,14.67552 29.46375,14.67552 L9.106875,14.67552 C8.961875,14.67552 8.83625,14.62112 8.73,14.51232 C8.62375,14.40352 8.570625,14.27488 8.570625,14.1264 L8.570625,10.83456 C8.570625,10.68608 8.62375,10.55744 8.73,10.44864 C8.83625,10.33984 8.961875,10.28544 9.106875,10.28544 L29.46375,10.28544 C29.60875,10.28544 29.734375,10.33984 29.840625,10.44864 C29.946875,10.55744 30,10.68608 30,10.83456 L30,10.83456 Z M30,2.05728 L30,5.34912 C30,5.4976 29.946875,5.62624 29.840625,5.73504 C29.734375,5.84384 29.60875,5.89824 29.46375,5.89824 L9.106875,5.89824 C8.961875,5.89824 8.83625,5.84384 8.73,5.73504 C8.62375,5.62624 8.570625,5.4976 8.570625,5.34912 L8.570625,2.05728 C8.570625,1.9088 8.62375,1.78016 8.73,1.67136 C8.83625,1.56256 8.961875,1.50816 9.106875,1.50816 L29.46375,1.50816 C29.60875,1.50816 29.734375,1.56256 29.840625,1.67136 C29.946875,1.78016 30,1.9088 30,2.05728 L30,2.05728 Z" id="Shape"></path>
                </g>
            </g>
        </g>
        <g id="icon-cancel" sketch:type="MSLayerGroup" transform="translate(32.000000, 37.000000)" fill="#000000">
            <path d="M15,30 C6.71538462,30 0,23.2846154 0,15 C0,6.71538462 6.71538462,0 15,0 C23.2846154,0 30,6.71538462 30,15 C30,23.2846154 23.2846154,30 15,30 L15,30 Z M15,3.46153846 C8.62846154,3.46153846 3.46153846,8.62846154 3.46153846,15 C3.46153846,21.3715385 8.62846154,26.5384615 15,26.5384615 C21.3726923,26.5384615 26.5384615,21.3715385 26.5384615,15 C26.5384615,8.62846154 21.3726923,3.46153846 15,3.46153846 L15,3.46153846 Z M20.235,19.0788462 L19.065,20.2488462 C18.8503846,20.4634615 18.5019231,20.4634615 18.2861538,20.2488462 L14.9746154,16.9373077 L11.6630769,20.2488462 C11.4473077,20.4634615 11.1,20.4634615 10.8842308,20.2488462 L9.71423077,19.0788462 C9.49961538,18.8642308 9.49961538,18.5157692 9.71423077,18.3 L13.0269231,14.9896154 L9.71423077,11.6780769 C9.49961538,11.4623077 9.49961538,11.1138462 9.71423077,10.8980769 L10.8842308,9.72923077 C11.1,9.51346154 11.4473077,9.51346154 11.6630769,9.72923077 L14.9746154,13.0407692 L18.2861538,9.72923077 C18.5019231,9.51346154 18.8503846,9.51346154 19.065,9.72923077 L20.235,10.8980769 C20.4496154,11.1138462 20.4496154,11.4623077 20.235,11.6780769 L16.9223077,14.9896154 L20.235,18.3 C20.4496154,18.5157692 20.4496154,18.8653846 20.235,19.0788462 L20.235,19.0788462 Z" id="Shape" sketch:type="MSShapeGroup"></path>
        </g>
        <g id="dearty-logo" sketch:type="MSLayerGroup" transform="translate(0.000000, 69.000000)">
            <g id="Page-1" sketch:type="MSShapeGroup">
                <g id="logo-dearty-2">
                    <g id="Page-1">
                        <g id="logo-dearty">
                            <g id="Group" transform="translate(-0.084507, -0.099701)">
                                <rect id="Rectangle-53" fill="#1A1E3D" transform="translate(19.728004, 20.079277) rotate(45.000000) translate(-19.728004, -20.079277) " x="5.72800371" y="5.9616303" width="28.214448" height="27.843524"></rect>
                                <path d="M19.3830622,10.1170583 C19.3729214,10.2166493 19.3639255,10.3050223 19.3564834,10.3431154 C15.878746,10.4172034 13.6048251,12.18216 12.3776193,13.5839402 C10.7886142,15.3990958 9.95910952,17.7687815 9.95910952,20.2262751 C9.95910952,22.9674499 10.779373,25.5037124 12.5657156,27.3677758 C14.4184643,29.3011656 17.1996729,30.3713253 20.099791,30.38101 L20.1670968,30.3811715 C23.2338846,30.3811715 25.8162835,29.3392586 27.6355838,27.3680181 C29.3156111,25.5477778 30.2407995,23.0114344 30.2407995,20.2262751 L30.2407995,1.22674216 C30.1446251,1.22585439 30.0890958,1.22561228 30.0340574,1.22561228 C23.7482054,1.22561228 19.9655884,4.38331 19.3830622,10.1170583 L19.3830622,10.1170583 L19.3830622,10.1170583 Z" id="Shape" fill="#1A1E3D"></path>
                                <path d="M28.8914129,20.9929809 L20.7133122,20.9929809 L20.7133122,29.0635675 C25.2299955,29.0635675 28.8914129,25.4502852 28.8914129,20.9929809 L28.8914129,20.9929809 L28.8914129,20.9929809 Z M19.486597,19.7823929 L19.486597,11.7118062 C14.9699137,11.7118062 11.3084962,15.3250885 11.3084962,19.7823929 L19.486597,19.7823929 L19.486597,19.7823929 Z M20.7133122,10.5012182 L28.8914129,10.5012182 L28.8914129,2.43063156 C24.3747298,2.43063156 20.7133122,6.04391392 20.7133122,10.5012182 L20.7133122,10.5012182 L20.7133122,10.5012182 Z M20.6666666,11.6775599 L20.6666666,19.7481466 L28.8447675,19.7481466 L28.8447675,11.6775599 L20.6666666,11.6775599 L20.6666666,11.6775599 Z" id="Shape" fill="#FFFFFF"></path>
                                <path d="M11.3084962,20.9929809 C11.3084962,25.4502852 14.9699137,29.0635675 19.486597,29.0635675 L19.486597,20.9929809 L11.3084962,20.9929809 L11.3084962,20.9929809 Z" id="Shape" fill="#F38433"></path>
                            </g>
                        </g>
                    </g>
                </g>
            </g>
        </g>
        <path d="M87,34 C96.3888407,34 104,26.3888407 104,17 C104,7.61115925 96.3888407,0 87,0 C77.6111593,0 70,7.61115925 70,17 C70,26.3888407 77.6111593,34 87,34 L87,34 Z M94.4967033,7.75172414 L92.0597802,7.75172414 C91.4484725,7.75172414 91.1736264,8.19675862 91.1736264,8.74482759 L91.1736264,25.6275862 L95.6043956,25.6275862 L95.6043956,8.74482759 C95.6043956,8.19675862 95.1093956,7.75172414 94.4967033,7.75172414 L94.4967033,7.75172414 L94.4967033,7.75172414 Z M87.8505495,13.7103448 L85.4136264,13.7103448 C84.8023187,13.7103448 84.5274725,14.1553793 84.5274725,14.7034483 L84.5274725,25.6275862 L88.9582418,25.6275862 L88.9582418,14.7034483 C88.9582418,14.1553793 88.4632418,13.7103448 87.8505495,13.7103448 L87.8505495,13.7103448 L87.8505495,13.7103448 Z M81.2043956,19.6689655 L78.7674725,19.6689655 C78.1561648,19.6689655 77.8813187,20.1127586 77.8813187,20.662069 L77.8813187,25.6275862 L82.3120879,25.6275862 L82.3120879,20.662069 C82.3120879,20.1127586 81.8157033,19.6689655 81.2043956,19.6689655 L81.2043956,19.6689655 L81.2043956,19.6689655 Z" id="Oval-18" fill="#FF3878" sketch:type="MSShapeGroup"></path>
        <g id="icon-mail3" sketch:type="MSLayerGroup" transform="translate(82.000000, 111.000000)" fill="#FF3878">
            <g id="Page-1" sketch:type="MSShapeGroup">
                <g id="Shape-3-_x2B_-Fill-486" transform="translate(-0.024521, 0.000000)">
                    <g id="Group">
                        <path d="M67.4332444,35.0770773 C68.1329778,37.7953955 68.5059556,40.6451409 68.5059556,43.5821455 C68.5059556,62.2200409 53.5054222,77.38445 35.0656,77.38445 C16.6261333,77.38445 1.62488889,62.2204 1.62488889,43.5821455 C1.62488889,24.9435318 16.6264889,9.77984091 35.0656,9.77984091 C38.6122667,9.77984091 42.0309333,10.3428955 45.2408889,11.3817455 C45.4520889,10.8161773 45.6910222,10.2649727 45.9541333,9.72813182 C42.5237333,8.59807273 38.8643556,7.98474545 35.0656,7.98474545 C15.6462222,7.98474545 -0.152888889,23.9538773 -0.152888889,43.5825045 C-0.152888889,63.2111318 15.6458667,79.1795455 35.0652444,79.1795455 C54.4846222,79.1795455 70.2833778,63.2104136 70.2833778,43.5817864 C70.2833778,40.4260955 69.8734222,37.3659227 69.1068444,34.4504636 C68.5628444,34.6860273 68.0035556,34.8957364 67.4332444,35.0770773 L67.4332444,35.0770773 Z" id="Shape"></path>
                        <path d="M19.344,28.2144909 C16.4476444,28.2144909 14.0995556,30.6046 14.0995556,33.5495045 L14.0995556,50.8885682 C14.0995556,53.8349091 16.4476444,56.2235818 19.344,56.2235818 L50.8106667,56.2235818 C53.7070222,56.2235818 56.0551111,53.8349091 56.0551111,50.8885682 L56.0551111,33.5495045 C56.0551111,30.6046 53.7070222,28.2144909 50.8106667,28.2144909 L19.344,28.2144909 L19.344,28.2144909 Z M16.5884444,35.3963091 L26.1884444,42.5781273 L16.5884444,49.7599455 L16.5884444,35.3963091 L16.5884444,35.3963091 Z M52.8551111,51.0652409 C52.8551111,52.5245864 51.6920889,53.7099455 50.2648889,53.7099455 L19.1786667,53.7099455 C17.7500444,53.7099455 16.5884444,52.5245864 16.5884444,51.0652409 L26.7328,43.2963091 L32.3904,47.6298182 C33.0805333,48.1558864 33.9004444,48.42305 34.7217778,48.42305 C35.5420444,48.42305 36.3612444,48.1573227 37.0520889,47.6298182 L42.7107556,43.2963091 L52.8551111,51.0652409 L52.8551111,51.0652409 Z M53.9217778,49.7599455 L44.3217778,42.5781273 L53.9217778,35.3963091 L53.9217778,49.7599455 L53.9217778,49.7599455 Z M36.2744889,46.3485818 C35.8225778,46.7012091 35.2864,46.8872182 34.7217778,46.8872182 C34.1571556,46.8872182 33.6195556,46.7001318 33.1676444,46.3485818 L16.5884444,33.42095 C16.5884444,31.93575 17.7504,30.7281273 19.1786667,30.7281273 L50.2648889,30.7281273 C51.6920889,30.7281273 52.8551111,31.93575 52.8551111,33.42095 L36.2744889,46.3485818 L36.2744889,46.3485818 Z" id="Shape-7"></path>
                        <path d="M72.1162667,8.1291 C71.6209778,0.556231818 65.6600889,4.6373 65.6600889,4.6373 C71.3237333,5.24703636 72.1162667,8.1291 72.1162667,8.1291 L72.1162667,8.1291 L72.1162667,8.1291 Z" id="Shape_2_"></path>
                        <path d="M74.2581333,4.97628182 C73.4332444,6.31892273 72.5589333,7.53552273 72.1141333,8.13951364 C72.5614222,11.7997273 69.8961778,21.9709773 69.8961778,21.9709773 C69.8961778,21.9709773 61.2935111,23.0223955 56.8245333,30.67965 C56.8245333,30.67965 56.2691556,30.77445 55.5598222,30.6692364 L62.0444444,18.5208318 C62.6151111,18.5524318 63.2220444,18.4472182 63.8005333,18.1735909 C65.4151111,17.4162682 66.2033778,15.7123818 65.5616,14.36615 C64.9184,13.0091455 63.0887111,12.52545 61.4752,13.2723591 C59.8602667,14.0296818 59.0734222,15.7335682 59.7152,17.0905727 C59.8901333,17.4586409 60.1546667,17.7530955 60.4789333,17.98435 L53.8549333,29.9223273 C53.3240889,29.4806455 53.1118222,29.0281909 53.1118222,29.0281909 C53.1118222,29.0281909 56.8533333,22.0862455 54.7409778,14.1977364 C54.7409778,14.1977364 62.7722667,4.63694091 65.5484444,4.63694091 L65.6593778,4.63694091 C66.0259556,3.80815909 66.7221333,2.27771364 67.4990222,0.808313636 C65.6732444,0.182777273 63.7198222,-0.161231818 61.6846222,-0.161231818 C51.6821333,-0.161231818 43.5733333,8.03465909 43.5733333,18.1448636 C43.5733333,28.2550682 51.6828444,36.4509591 61.6846222,36.4509591 C71.6864,36.4509591 79.7955556,28.2550682 79.7955556,18.1448636 C79.7952,12.9732364 77.6700444,8.30541364 74.2581333,4.97628182 L74.2581333,4.97628182 L74.2581333,4.97628182 Z" id="Shape_3_"></path>
                    </g>
                </g>
            </g>
        </g>
        <path d="M52,34 C61.3888407,34 69,26.3888407 69,17 C69,7.61115925 61.3888407,0 52,0 C42.6111593,0 35,7.61115925 35,17 C35,26.3888407 42.6111593,34 52,34 L52,34 Z M57.2376926,11.268842 C57.2376926,14.1926299 54.9478318,18.2280844 52.122604,18.2280844 C49.2973761,18.2280844 47.0072749,14.1928788 47.0072749,11.268842 C47.0072749,8.34480519 49.2973761,5.97461039 52.122604,5.97461039 C54.9478318,5.97461039 57.2376926,8.34505411 57.2376926,11.268842 L57.2376926,11.268842 Z M55.9897052,17 C54.9574521,18.3476222 53.604604,19.3002222 52.122604,19.3002222 C50.6403635,19.3002222 49.2877559,18.3476222 48.2555027,17 C44.9555154,18.3701111 42.6553128,21.2232667 42.6553128,23.1673333 C42.6553128,25.8070889 46.8939964,27.9472 52.122604,27.9472 C57.3512116,27.9472 61.5898951,25.8073333 61.5898951,23.1673333 C61.5898951,21.2232667 59.2899331,18.3698667 55.9897052,17 L55.9897052,17 Z" id="Oval-16" fill="#FF3878" sketch:type="MSShapeGroup"></path>
        <path d="M122,34 C131.388841,34 139,26.3888407 139,17 C139,7.61115925 131.388841,0 122,0 C112.611159,0 105,7.61115925 105,17 C105,26.3888407 112.611159,34 122,34 L122,34 Z M128.090454,15.2346667 C128.090454,11.7913333 124.449454,9 119.959513,9 C115.468924,9 111.828571,11.7913333 111.828571,15.2346667 C111.828571,17.304 113.143395,19.1373333 115.167395,20.2713333 C115.161571,20.2893333 113.554924,23.3013333 113.554924,23.3013333 C113.554924,23.3013333 118.460924,21.3733333 118.474513,21.3653333 C118.955924,21.434 119.452219,21.4686667 119.959513,21.4686667 C124.449454,21.4686667 128.090454,18.6773333 128.090454,15.2346667 L128.090454,15.2346667 L128.090454,15.2346667 Z M134.077689,17.1826667 C134.077689,13.74 130.650218,10.9733333 126.939983,10.9486667 C132.258807,16.4073333 125.99463,22.2233333 120.889336,22.2233333 C120.889336,22.2233333 121.456807,23.4166667 125.946748,23.4166667 C126.453395,23.4166667 126.950336,23.3806667 127.431748,23.3126667 C127.445336,23.322 132.351983,25.2486667 132.351983,25.2486667 C132.351983,25.2486667 130.744689,22.2373333 130.739513,22.2193333 C132.762866,21.0853333 134.077689,19.2513333 134.077689,17.1826667 L134.077689,17.1826667 L134.077689,17.1826667 Z" id="Oval-19" fill="#FF3878" sketch:type="MSShapeGroup"></path>
        <g id="icon-slogan" sketch:type="MSLayerGroup" transform="translate(164.000000, 111.000000)" fill="#FF3878">
            <g id="Page-1" sketch:type="MSShapeGroup">
                <g id="Shape-3-_x2B_-Fill-486" transform="translate(-0.024521, 0.000000)">
                    <g id="Group">
                        <path d="M67.4332444,35.0770773 C68.1329778,37.7953955 68.5059556,40.6451409 68.5059556,43.5821455 C68.5059556,62.2200409 53.5054222,77.38445 35.0656,77.38445 C16.6261333,77.38445 1.62488889,62.2204 1.62488889,43.5821455 C1.62488889,24.9435318 16.6264889,9.77984091 35.0656,9.77984091 C38.6122667,9.77984091 42.0309333,10.3428955 45.2408889,11.3817455 C45.4520889,10.8161773 45.6910222,10.2649727 45.9541333,9.72813182 C42.5237333,8.59807273 38.8643556,7.98474545 35.0656,7.98474545 C15.6462222,7.98474545 -0.152888889,23.9538773 -0.152888889,43.5825045 C-0.152888889,63.2111318 15.6458667,79.1795455 35.0652444,79.1795455 C54.4846222,79.1795455 70.2833778,63.2104136 70.2833778,43.5817864 C70.2833778,40.4260955 69.8734222,37.3659227 69.1068444,34.4504636 C68.5628444,34.6860273 68.0035556,34.8957364 67.4332444,35.0770773 L67.4332444,35.0770773 Z" id="Shape"></path>
                        <g transform="translate(13.866667, 28.368182)" id="SVGID_1_-link">
                            <g>
                                <path d="M6.8736,17.2352864 L32.6353778,17.2352864 L32.6353778,18.9736455 L6.8736,18.9736455 L6.8736,17.2352864 L6.8736,17.2352864 Z M6.8736,13.7574909 L32.6353778,13.7574909 L32.6353778,15.49585 L6.8736,15.49585 L6.8736,13.7574909 L6.8736,13.7574909 Z M6.8736,8.54061818 L27.4833778,8.54061818 L27.4833778,12.0191318 L6.8736,12.0191318 L6.8736,8.54061818 L6.8736,8.54061818 Z M37.6277333,26.4883409 L16.8636444,26.8474318 L7.8048,32.7918227 L7.8048,26.4883409 L4.85511111,26.4883409 C3.79235556,26.4883409 2.92764444,25.6627909 2.92764444,24.6515909 L2.92764444,4.44303182 C2.92764444,3.43039545 3.79377778,2.60628182 4.85511111,2.60628182 L37.6280889,2.60628182 C38.6908444,2.60628182 39.5555556,3.43183182 39.5555556,4.44303182 L39.5555556,24.6512318 C39.5552,25.6642273 38.6890667,26.4883409 37.6277333,26.4883409 L37.6277333,26.4883409 Z M5.53315556,-0.153690909 C2.48533333,-0.153690909 0.00426666667,2.18722273 0.00426666667,5.06246364 L0.00426666667,25.9281591 C0.00426666667,28.8037591 3.69066667,29.4063136 5.53315556,29.4063136 L5.53315556,37.1249727 L17.7418667,29.4063136 L36.8636444,29.4063136 C39.9114667,29.4063136 42.3928889,27.0650409 42.3928889,24.1898 L42.3928889,5.06246364 C42.3928889,2.18686364 39.9114667,-0.153690909 36.8636444,-0.153690909 L5.53315556,-0.153690909 L5.53315556,-0.153690909 Z" id="SVGID_1_"></path>
                            </g>
                        </g>
                        <path d="M72.1162667,8.1291 C71.6209778,0.556231818 65.6600889,4.6373 65.6600889,4.6373 C71.3237333,5.24703636 72.1162667,8.1291 72.1162667,8.1291 L72.1162667,8.1291 L72.1162667,8.1291 Z" id="Shape_2_"></path>
                        <path d="M74.2581333,4.97628182 C73.4332444,6.31892273 72.5589333,7.53552273 72.1141333,8.13951364 C72.5614222,11.7997273 69.8961778,21.9709773 69.8961778,21.9709773 C69.8961778,21.9709773 61.2935111,23.0223955 56.8245333,30.67965 C56.8245333,30.67965 56.2691556,30.77445 55.5598222,30.6692364 L62.0444444,18.5208318 C62.6151111,18.5524318 63.2220444,18.4472182 63.8005333,18.1735909 C65.4151111,17.4162682 66.2033778,15.7123818 65.5616,14.36615 C64.9184,13.0091455 63.0887111,12.52545 61.4752,13.2723591 C59.8602667,14.0296818 59.0734222,15.7335682 59.7152,17.0905727 C59.8901333,17.4586409 60.1546667,17.7530955 60.4789333,17.98435 L53.8549333,29.9223273 C53.3240889,29.4806455 53.1118222,29.0281909 53.1118222,29.0281909 C53.1118222,29.0281909 56.8533333,22.0862455 54.7409778,14.1977364 C54.7409778,14.1977364 62.7722667,4.63694091 65.5484444,4.63694091 L65.6593778,4.63694091 C66.0259556,3.80815909 66.7221333,2.27771364 67.4990222,0.808313636 C65.6732444,0.182777273 63.7198222,-0.161231818 61.6846222,-0.161231818 C51.6821333,-0.161231818 43.5733333,8.03465909 43.5733333,18.1448636 C43.5733333,28.2550682 51.6828444,36.4509591 61.6846222,36.4509591 C71.6864,36.4509591 79.7955556,28.2550682 79.7955556,18.1448636 C79.7952,12.9732364 77.6700444,8.30541364 74.2581333,4.97628182 L74.2581333,4.97628182 L74.2581333,4.97628182 Z" id="Shape_3_"></path>
                    </g>
                </g>
            </g>
        </g>
        <path d="M17,34 C26.3888407,34 34,26.3888407 34,17 C34,7.61115925 26.3888407,0 17,0 C7.61115925,0 0,7.61115925 0,17 C0,26.3888407 7.61115925,34 17,34 L17,34 Z M13.6995299,14.4763243 C11.1072479,14.4763243 9.00597314,13.9357838 9.00597314,13.268973 L9.00597314,14.8006486 C9.00597314,15.4674595 11.1072479,16.008 13.6995299,16.008 C16.291812,16.008 18.3930867,15.4674595 18.3930867,14.8006486 L18.3930867,13.268973 C18.3930867,13.9357838 16.2914176,14.4763243 13.6995299,14.4763243 L13.6995299,14.4763243 Z M13.6995299,17.5396757 C11.1072479,17.5396757 9.00597314,16.9991351 9.00597314,16.3323243 L9.00597314,17.864 C9.00597314,18.5308108 11.1072479,19.0713514 13.6995299,19.0713514 C16.291812,19.0713514 18.3930867,18.5308108 18.3930867,17.864 L18.3930867,16.3323243 C18.3930867,16.9991351 16.2914176,17.5396757 13.6995299,17.5396757 L13.6995299,17.5396757 Z M13.6995299,20.6025946 C11.1072479,20.6025946 9.00597314,20.0620541 9.00597314,19.3952432 L9.00597314,20.9269189 C9.00597314,21.5937297 11.1072479,22.1342703 13.6995299,22.1342703 C16.291812,22.1342703 18.3930867,21.5937297 18.3930867,20.9269189 L18.3930867,19.3952432 C18.3930867,20.0620541 16.2914176,20.6025946 13.6995299,20.6025946 L13.6995299,20.6025946 Z M13.6995299,23.6659459 C11.1072479,23.6659459 9.00597314,23.1254054 9.00597314,22.4585946 L9.00597314,23.9902703 C9.00597314,24.6570811 11.1072479,25.1976216 13.6995299,25.1976216 C16.291812,25.1976216 18.3930867,24.6570811 18.3930867,23.9902703 L18.3930867,22.4585946 C18.3930867,23.1254054 16.2914176,23.6659459 13.6995299,23.6659459 L13.6995299,23.6659459 Z M13.6995299,8.9987027 C11.1072479,8.9987027 9.00597314,9.53924324 9.00597314,10.2060541 L9.00597314,11.7377297 C9.00597314,12.4045405 11.1072479,12.9450811 13.6995299,12.9450811 C16.291812,12.9450811 18.3930867,12.4045405 18.3930867,11.7377297 L18.3930867,10.2060541 C18.3930867,9.53924324 16.2914176,8.9987027 13.6995299,8.9987027 L13.6995299,8.9987027 Z M24.0879829,18.2397838 C21.8798303,18.2397838 20.0897241,17.7792432 20.0897241,17.2114595 L20.0897241,18.5161081 C20.0897241,19.0838919 21.8798303,19.5444324 24.0879829,19.5444324 C26.2961355,19.5444324 28.0862418,19.0838919 28.0862418,18.5161081 L28.0862418,17.2114595 C28.0862418,17.7796757 26.2961355,18.2397838 24.0879829,18.2397838 L24.0879829,18.2397838 Z M24.0879829,20.8490811 C21.8798303,20.8490811 20.0897241,20.3885405 20.0897241,19.8207568 L20.0897241,21.1254054 C20.0897241,21.6931892 21.8798303,22.1537297 24.0879829,22.1537297 C26.2961355,22.1537297 28.0862418,21.6931892 28.0862418,21.1254054 L28.0862418,19.8207568 C28.0862418,20.3885405 26.2961355,20.8490811 24.0879829,20.8490811 L24.0879829,20.8490811 Z M24.0879829,13.5738378 C21.8798303,13.5738378 20.0897241,14.0343784 20.0897241,14.6021622 L20.0897241,15.9068108 C20.0897241,16.4745946 21.8798303,16.9351351 24.0879829,16.9351351 C26.2961355,16.9351351 28.0862418,16.4745946 28.0862418,15.9068108 L28.0862418,14.6021622 C28.0862418,14.0343784 26.2961355,13.5738378 24.0879829,13.5738378 L24.0879829,13.5738378 Z" id="Oval-20" fill="#FF3878" sketch:type="MSShapeGroup"></path>
        <g id="icon-strony3" sketch:type="MSLayerGroup" transform="translate(0.000000, 111.000000)" fill="#FF3878">
            <g id="Page-1" sketch:type="MSShapeGroup">
                <g id="Shape-3-_x2B_-Fill-486" transform="translate(-0.024521, 0.000000)">
                    <g id="Group">
                        <path d="M67.4332444,35.0770773 C68.1329778,37.7953955 68.5059556,40.6451409 68.5059556,43.5821455 C68.5059556,62.2200409 53.5054222,77.38445 35.0656,77.38445 C16.6261333,77.38445 1.62488889,62.2204 1.62488889,43.5821455 C1.62488889,24.9435318 16.6264889,9.77984091 35.0656,9.77984091 C38.6122667,9.77984091 42.0309333,10.3428955 45.2408889,11.3817455 C45.4520889,10.8161773 45.6910222,10.2649727 45.9541333,9.72813182 C42.5237333,8.59807273 38.8643556,7.98474545 35.0656,7.98474545 C15.6462222,7.98474545 -0.152888889,23.9538773 -0.152888889,43.5825045 C-0.152888889,63.2111318 15.6458667,79.1795455 35.0652444,79.1795455 C54.4846222,79.1795455 70.2833778,63.2104136 70.2833778,43.5817864 C70.2833778,40.4260955 69.8734222,37.3659227 69.1068444,34.4504636 C68.5628444,34.6860273 68.0035556,34.8957364 67.4332444,35.0770773 L67.4332444,35.0770773 Z" id="Shape"></path>
                        <path d="M38.4014222,60.9319818 L33.5456,60.9319818 L33.5456,63.2079 L28.6897778,63.9364955 L28.6897778,65.3933273 L43.1573333,65.3933273 L43.1573333,64.0266273 L38.4017778,63.2079 L38.4014222,60.9319818 L38.4014222,60.9319818 Z M53.5008,28.2144909 L17.3646222,28.2144909 C15.6284444,28.2144909 14.2222222,29.6070455 14.2222222,31.3267318 L14.2222222,53.1102636 C14.2222222,54.8285136 15.6284444,56.2221455 17.3646222,56.2221455 L53.5008,56.2221455 C55.2376889,56.2221455 56.6435556,54.8285136 56.6435556,53.1102636 L56.6435556,31.3267318 C56.6435556,29.6074045 55.2376889,28.2144909 53.5008,28.2144909 L53.5008,28.2144909 L53.5008,28.2144909 Z M35.4328889,53.4962864 C34.6883556,53.4962864 34.0842667,52.8854727 34.0842667,52.1328182 C34.0842667,51.3790864 34.6883556,50.7697091 35.4328889,50.7697091 C36.1784889,50.7697091 36.7815111,51.3790864 36.7815111,52.1328182 C36.7815111,52.8851136 36.1774222,53.4962864 35.4328889,53.4962864 L35.4328889,53.4962864 L35.4328889,53.4962864 Z M52.9653333,48.2905455 L16.9194667,48.2905455 L16.9194667,30.9410682 L52.9653333,30.9410682 L52.9653333,48.2905455 L52.9653333,48.2905455 Z" id="Shape_1_"></path>
                        <path d="M72.1162667,8.1291 C71.6209778,0.556231818 65.6600889,4.6373 65.6600889,4.6373 C71.3237333,5.24703636 72.1162667,8.1291 72.1162667,8.1291 L72.1162667,8.1291 L72.1162667,8.1291 Z" id="Shape_2_"></path>
                        <path d="M74.2581333,4.97628182 C73.4332444,6.31892273 72.5589333,7.53552273 72.1141333,8.13951364 C72.5614222,11.7997273 69.8961778,21.9709773 69.8961778,21.9709773 C69.8961778,21.9709773 61.2935111,23.0223955 56.8245333,30.67965 C56.8245333,30.67965 56.2691556,30.77445 55.5598222,30.6692364 L62.0444444,18.5208318 C62.6151111,18.5524318 63.2220444,18.4472182 63.8005333,18.1735909 C65.4151111,17.4162682 66.2033778,15.7123818 65.5616,14.36615 C64.9184,13.0091455 63.0887111,12.52545 61.4752,13.2723591 C59.8602667,14.0296818 59.0734222,15.7335682 59.7152,17.0905727 C59.8901333,17.4586409 60.1546667,17.7530955 60.4789333,17.98435 L53.8549333,29.9223273 C53.3240889,29.4806455 53.1118222,29.0281909 53.1118222,29.0281909 C53.1118222,29.0281909 56.8533333,22.0862455 54.7409778,14.1977364 C54.7409778,14.1977364 62.7722667,4.63694091 65.5484444,4.63694091 L65.6593778,4.63694091 C66.0259556,3.80815909 66.7221333,2.27771364 67.4990222,0.808313636 C65.6732444,0.182777273 63.7198222,-0.161231818 61.6846222,-0.161231818 C51.6821333,-0.161231818 43.5733333,8.03465909 43.5733333,18.1448636 C43.5733333,28.2550682 51.6828444,36.4509591 61.6846222,36.4509591 C71.6864,36.4509591 79.7955556,28.2550682 79.7955556,18.1448636 C79.7952,12.9732364 77.6700444,8.30541364 74.2581333,4.97628182 L74.2581333,4.97628182 L74.2581333,4.97628182 Z" id="Shape_3_"></path>
                    </g>
                </g>
            </g>
        </g>
        <g id="mail" sketch:type="MSLayerGroup" transform="translate(0.000000, 194.000000)">
            <g id="Page-1" sketch:type="MSShapeGroup">
                <g id="Oval-2-+-icon-mail">
                    <g id="icon-mail" transform="translate(10.081647, 15.256108)" fill="#FFFFFF">
                        <path d="M26.3582109,0 L3.76545869,0 C1.68598413,0 0,1.68875988 0,3.7695533 L0,16.0206015 C0,18.1023373 1.68598413,19.7901548 3.76545869,19.7901548 L26.3582109,19.7901548 C28.4376854,19.7901548 30.1236696,18.1023373 30.1236696,16.0206015 L30.1236696,3.7695533 C30.1236696,1.68875988 28.4376854,0 26.3582109,0 L26.3582109,0 L26.3582109,0 Z M1.88272935,4.94753872 L8.47134071,9.8950774 L1.88272935,14.8426161 L1.88272935,4.94753872 L1.88272935,4.94753872 Z M28.2409402,16.0206015 C28.2409402,17.0609982 27.3955947,17.9053782 26.3582109,17.9053782 L3.76545869,17.9053782 C2.72713346,17.9053782 1.88272935,17.0609982 1.88272935,16.0206015 L9.25549747,10.4840701 L13.3673784,13.5722766 C13.8691257,13.9473472 14.4650096,14.1377096 15.0618348,14.1377096 C15.6577186,14.1377096 16.2536025,13.9482896 16.7553498,13.5722766 L20.8681721,10.4840701 L28.2409402,16.0206015 L28.2409402,16.0206015 Z M28.2409402,14.8426161 L21.6513875,9.8950774 L28.2409402,4.94753872 L28.2409402,14.8426161 L28.2409402,14.8426161 Z M16.190531,12.818366 C15.8619947,13.0652717 15.4722698,13.1953213 15.0618348,13.1953213 C14.6513998,13.1953213 14.2607335,13.0643293 13.9321972,12.818366 L1.88272935,3.7695533 C1.88272935,2.73009898 2.72713346,1.88477665 3.76545869,1.88477665 L26.3582109,1.88477665 C27.3955947,1.88477665 28.2409402,2.73009898 28.2409402,3.7695533 L16.190531,12.818366 L16.190531,12.818366 Z" id="Shape"></path>
                    </g>
                    <path d="M50,25 C50,11.1928813 38.8071187,0 25,0 C11.1928813,0 0,11.1928813 0,25 C0,38.8071187 11.1928813,50 25,50 C38.8071187,50 50,38.8071187 50,25 Z M1.92307692,25 C1.92307692,12.2549673 12.2549673,1.92307692 25,1.92307692 C37.7450326,1.92307692 48.0769231,12.2549673 48.0769231,25 C48.0769231,37.7450326 37.7450326,48.0769231 25,48.0769231 C12.2549673,48.0769231 1.92307692,37.7450326 1.92307692,25 Z" id="Oval-2" fill="#E4E4E4"></path>
                </g>
            </g>
        </g>
        <g id="tel" sketch:type="MSLayerGroup" transform="translate(52.000000, 194.000000)">
            <g id="Page-1" sketch:type="MSShapeGroup">
                <g id="Oval-1-+-icon-phone">
                    <g id="icon-phone" transform="translate(10.112973, 10.287781)" fill="#FEFEFE">
                        <path d="M18.9532487,19.8893813 C18.5203023,20.5395071 18.2448361,20.7325431 17.6957661,20.7325431 C16.4213095,20.7325431 15.2338071,19.8409479 12.5790466,17.1833005 C11.1934623,15.7962096 10.6191853,15.1829813 10.0600217,14.4366192 C9.37179256,13.5179824 9.03332125,12.7434924 9.03332125,12.0598618 C9.03332125,11.509409 9.22632657,11.2333873 9.87583054,10.7999138 C11.0334592,10.1087788 11.81168,9.58940077 12.5790466,8.82119978 C13.8340468,7.56483481 13.0716856,5.50422131 11.2061485,3.32539458 C9.61783035,1.47034179 7.60796923,0 6.39938997,0 C5.55413663,0 4.64539929,0.606483667 3.56680779,1.68624807 C3.15706548,2.09643593 2.73043061,2.57099014 2.2919262,3.09776764 C1.76491529,3.73086843 1.24724526,4.40682446 0.759761933,5.08253535 C0.589232526,5.31890974 0.434509635,5.53857353 0.298297675,5.73606054 C0.250393862,5.80551391 0.208149914,5.86734955 0.171906226,5.92088199 C0.149786903,5.95355253 0,6.17829186 0,6.17829186 L0,6.40553186 C0,10.3628368 3.92381269,18.1836369 7.75065077,22.0146363 C11.5776479,25.8457949 19.3903091,29.7740536 23.3439541,29.7740536 L23.5716055,29.7740536 L23.7609595,29.6476803 C23.8826391,29.5653909 23.9444097,29.5230996 24.0137898,29.4751422 C24.211067,29.3387788 24.4304969,29.1838844 24.6666193,29.0131661 C25.3416079,28.5251442 26.016841,28.0069025 26.6492643,27.4793101 C27.1754765,27.0403231 27.6495209,26.6132192 28.0592656,26.2030288 C29.1376116,25.1235103 29.7433441,24.2139236 29.7433441,23.3685217 C29.7433441,22.1594417 28.2746995,20.1475321 26.4218889,18.5576819 C24.2449681,16.6897207 22.185548,15.9261431 20.9297562,17.1833005 C20.1624158,17.9514754 19.6436425,18.7304814 18.9532487,19.8893813 L18.9532487,19.8893813 Z M25.443525,19.6978666 C26.982396,21.0183332 28.2409402,22.7424245 28.2409402,23.3685217 C28.2409402,23.6749278 27.8007119,24.3359883 26.9963286,25.1412464 C26.6216028,25.5163796 26.1804315,25.9138655 25.686832,26.3256458 C25.0837141,26.8287905 24.4351531,27.3265613 23.7863477,27.7956525 C23.5591421,27.9599239 23.348339,28.1087288 23.1595096,28.2392528 C23.0471457,28.3169217 22.9677754,28.3707756 22.9269487,28.398023 L23.3439541,28.2716497 C19.8344717,28.2716497 12.3806965,24.5238414 8.81358785,20.9528538 C5.24632022,17.3817071 1.50240385,9.91946974 1.50240385,6.40553186 L1.3764486,6.82191022 C1.40366909,6.78103506 1.45746729,6.70157439 1.53505469,6.58908423 C1.66544015,6.40004478 1.81408673,6.18900766 1.97818305,5.96155029 C2.44677322,5.3120276 2.94401198,4.66275003 3.44661869,4.05896615 C3.85795737,3.56482295 4.2550166,3.12316631 4.62974487,2.74803056 C5.43388269,1.94301832 6.09408647,1.50240385 6.39938997,1.50240385 C7.02399452,1.50240385 8.74607603,2.76221647 10.0649136,4.30253337 C11.4532238,5.92398997 11.9657425,7.30929526 11.5161095,7.75941728 C10.871429,8.40479875 10.2376028,8.82780904 9.04181978,9.55025654 C8.01451792,10.2358692 7.5309174,10.9274783 7.5309174,12.0598618 C7.5309174,13.126381 7.99260606,14.1828168 8.85762862,15.3374344 C9.4751709,16.1617195 10.0775997,16.805009 11.5161095,18.245083 C12.9546312,19.685169 13.5972214,20.2882524 14.4206374,20.906486 C15.5742254,21.7726178 16.62983,22.234947 17.6957661,22.234947 C18.8277043,22.234947 19.5188179,21.7506414 20.2037421,20.722138 C20.9253953,19.5250671 21.3479867,18.8904906 21.9926933,18.245083 C22.4415348,17.7957535 23.8242904,18.3084421 25.443525,19.6978666 L25.443525,19.6978666 Z" id="Shape"></path>
                    </g>
                    <path d="M50,25 C50,11.1928813 38.8071187,0 25,0 C11.1928813,0 0,11.1928813 0,25 C0,38.8071187 11.1928813,50 25,50 C38.8071187,50 50,38.8071187 50,25 Z M1.92307692,25 C1.92307692,12.2549673 12.2549673,1.92307692 25,1.92307692 C37.7450326,1.92307692 48.0769231,12.2549673 48.0769231,25 C48.0769231,37.7450326 37.7450326,48.0769231 25,48.0769231 C12.2549673,48.0769231 1.92307692,37.7450326 1.92307692,25 Z" id="Oval-1" fill="#E3E3E3"></path>
                </g>
            </g>
        </g>
    </g>
</svg>