<?xml version="1.0" encoding="utf-8"?>
<!-- Generator: Adobe Illustrator 16.0.0, SVG Export Plug-In . SVG Version: 6.00 Build 0)  -->
<!DOCTYPE svg PUBLIC "-//W3C//DTD SVG 1.1//EN" "http://www.w3.org/Graphics/SVG/1.1/DTD/svg11.dtd">
<svg version="1.1" id="Layer_1" xmlns:sketch="http://www.bohemiancoding.com/sketch/ns"
	 xmlns="http://www.w3.org/2000/svg" xmlns:xlink="http://www.w3.org/1999/xlink" x="0px" y="0px" width="377px" height="377px"
	 viewBox="0 0 377 377" enable-background="new 0 0 377 377" xml:space="preserve">
<title>ikony-sketch</title>
<description>Created with Sketch.</description>
<g id="Page-1" sketch:type="MSPage">
	<g id="Group-2" sketch:type="MSLayerGroup">
		<g id="Oval-20">
			<path fill="#EEEEEE" d="M95.123,280.632c-52.727,0-95.623-42.505-95.623-94.75s42.505-94.75,94.75-94.75S189,133.637,189,185.882
				c0,25.361-9.7,49.154-27.313,66.996C144.019,270.775,120.379,280.632,95.123,280.632z M94.25,92.132
				c-51.694,0-93.75,42.056-93.75,93.75c0,51.694,42.447,93.75,94.623,93.75c24.987,0,48.374-9.751,65.853-27.456
				C178.402,234.522,188,210.979,188,185.882C188,134.188,145.944,92.132,94.25,92.132z"/>
		</g>
		<g id="Oval-21">
			<path fill="#EEEEEE" d="M282.75,281.505c-52.245,0-94.75-42.505-94.75-94.75s42.505-94.75,94.75-94.75s94.75,42.505,94.75,94.75
				S334.995,281.505,282.75,281.505z M282.75,93.005c-51.694,0-93.75,42.056-93.75,93.75c0,51.694,42.056,93.75,93.75,93.75
				s93.75-42.056,93.75-93.75C376.5,135.061,334.444,93.005,282.75,93.005z"/>
		</g>
		<g id="Oval-22">
			<path fill="#EEEEEE" d="M184.137,189c-52.245,0-94.75-42.505-94.75-94.75S131.892-0.5,184.137-0.5s94.75,42.505,94.75,94.75
				S236.382,189,184.137,189z M184.137,0.5c-51.694,0-93.75,42.056-93.75,93.75S132.443,188,184.137,188
				c51.694,0,93.75-42.056,93.75-93.75S235.831,0.5,184.137,0.5z"/>
		</g>
		<g id="Oval-23">
			<path fill="#EEEEEE" d="M184.137,377.5c-52.245,0-94.75-42.505-94.75-94.75S131.892,188,184.137,188s94.75,42.505,94.75,94.75
				S236.382,377.5,184.137,377.5z M184.137,189c-51.694,0-93.75,42.056-93.75,93.75s42.056,93.75,93.75,93.75
				c51.694,0,93.75-42.056,93.75-93.75S235.831,189,184.137,189z"/>
		</g>
	</g>
</g>
</svg>
