<?xml version="1.0" encoding="UTF-8" standalone="no"?>
<svg width="192px" height="44px" viewBox="0 0 192 44" version="1.1" xmlns="http://www.w3.org/2000/svg" xmlns:xlink="http://www.w3.org/1999/xlink" xmlns:sketch="http://www.bohemiancoding.com/sketch/ns">
    <!-- Generator: Sketch 3.0 (7574) - http://www.bohemiancoding.com/sketch -->
    <title>Slice 1</title>
    <description>Created with Sketch.</description>
    <defs></defs>
    <g id="Page-1" stroke="none" stroke-width="1" fill="none" fill-rule="evenodd" sketch:type="MSPage">
        <g id="logo3" sketch:type="MSLayerGroup">
            <g id="Page-1" sketch:type="MSShapeGroup">
                <g id="logo3">
                    <g id="Page-1">
                        <g id="logo3">
                            <g id="Page-1">
                                <path d="M5.07030671,0.29689761 C3.40819892,0.29689761 2.90234003,0.15236649 1.24023224,0.08010094 C1.16796668,0.15236649 1.09570113,1.1279515 1.24023224,1.27248261 C1.74609113,1.27248261 3.48046448,1.59767761 3.69726115,2.03127095 C3.87792504,2.35646595 3.84179226,2.82619207 3.84179226,3.18751985 C3.80565948,4.34376875 3.58886281,13.0517683 3.29980059,19.4834027 C3.26366781,20.1337927 3.08300392,21.5429711 2.86620725,21.9765644 C2.50487947,22.69922 0.30078001,22.9882822 -0.132813327,22.9882822 C-0.277344439,23.3134772 -0.241211661,24 -0.132813327,24.1445311 C1.52929446,24.0722656 2.57714503,23.8916017 4.23925282,23.8916017 C5.82909505,23.8916017 6.94921117,24.0722656 8.39452229,24.1445311 C8.46678785,23.9277344 8.46678785,23.1328133 8.32225673,22.9160167 C8.03319451,22.9160167 5.54003283,22.69922 5.32323616,22.04883 C5.2509706,21.7597678 5.17870505,20.8203155 5.17870505,20.2421911 C5.28710338,17.2070377 5.43163449,11.6787227 5.64843116,3.98244097 L14.1035012,24 C14.2118996,24.0361328 14.3202979,24.0722656 14.4286962,24.0722656 C14.9345551,24.0361328 15.7294762,22.7353528 15.8740073,22.4101578 C17.2470529,18.9414111 21.4023224,7.95704655 22.8837663,4.23537041 C22.9560318,4.05470652 22.9921646,3.98244097 23.0644302,3.98244097 C23.3173596,3.98244097 23.3534924,4.70509653 23.3534924,4.81349486 C23.4618907,7.74024988 23.6786874,16.2675855 23.750953,18.8691455 C23.750953,19.44727 23.8232185,20.5673861 23.8232185,21.0009794 C23.8232185,21.4345728 23.7148202,22.1933611 23.4980235,22.4101578 C23.1366957,22.7714855 21.5107207,22.9160167 21.0771274,22.9160167 C20.9325963,23.2050789 21.0048618,24.0361328 21.1132602,24.1445311 C22.775368,24.0722656 24.4374757,23.8916017 26.0995835,23.8916017 C27.6894258,23.8916017 29.279268,24.0722656 30.7245791,24.1445311 C30.7968447,23.9277344 30.7968447,23.2412117 30.6523136,22.9160167 C30.3632513,22.9160167 28.4482141,22.8076183 28.2314174,22.3017594 C27.8700897,21.39844 27.8700897,20.1337927 27.7978241,18.7246144 C27.653293,14.063486 27.4364963,5.78907987 27.3642308,3.2597854 C27.3642308,2.53712984 27.4364963,2.10353651 27.6894258,1.81447428 C27.978488,1.52541206 29.4960647,1.30861539 29.8935252,1.30861539 C29.9657908,1.16408428 29.8573924,0.22463205 29.7851269,0.08010094 C28.628878,0.15236649 26.8583719,0.29689761 25.6298574,0.29689761 C24.9433346,0.29689761 22.9921646,0.22463205 22.2695091,0.15236649 C22.2695091,0.15236649 21.4745879,2.75392651 20.8603307,4.34376875 C19.017559,9.185561 17.066389,14.2080172 15.9824057,16.9541083 C15.9824057,17.0263738 15.8378746,17.1347722 15.8017418,17.1347722 C15.765609,17.1347722 15.6572107,17.0986394 15.6572107,17.0625066 C13.0195179,10.7754032 9.2978417,2.39259873 8.43065507,0.08010094 C7.31053895,0.15236649 6.29882116,0.29689761 5.07030671,0.29689761 L5.07030671,0.29689761 L5.07030671,0.29689761 Z M49.5859315,0.29689761 C48.1406204,0.29689761 46.3339815,0.18849927 44.8886704,0.08010094 C44.7441393,0.29689761 44.7441393,1.05568594 44.8886704,1.27248261 C45.3222637,1.27248261 47.1289026,1.4531465 47.2734337,1.88673984 C47.4902304,2.53712984 47.5263632,3.62111318 47.5263632,4.92189319 L47.5263632,19.3027389 C47.5263632,20.6035189 47.4902304,21.6875022 47.2734337,22.3378922 C47.1289026,22.7714855 45.3222637,22.9521494 44.8886704,22.9521494 C44.7441393,23.1689461 44.7441393,23.9277344 44.8886704,24.1445311 C46.3339815,24.0361328 48.1044876,23.9277344 49.5497988,23.9277344 C50.9951099,23.9277344 52.8017488,24.0361328 54.2470599,24.1445311 C54.391591,23.9277344 54.391591,23.1689461 54.2470599,22.9521494 C53.8134666,22.9521494 52.0068277,22.7714855 51.8622966,22.3378922 C51.6454999,21.6875022 51.6454999,20.6035189 51.6454999,19.3027389 L51.6454999,4.92189319 C51.6454999,3.62111318 51.6454999,2.53712984 51.8622966,1.88673984 C52.0068277,1.4531465 53.8134666,1.27248261 54.2470599,1.27248261 C54.391591,1.05568594 54.391591,0.29689761 54.2470599,0.08010094 C52.8017488,0.18849927 51.0312427,0.29689761 49.5859315,0.29689761 L49.5859315,0.29689761 L49.5859315,0.29689761 Z M75.6376874,19.3027389 L75.6376874,4.92189319 C75.6376874,3.62111318 75.6376874,2.53712984 75.8544841,1.88673984 C75.9990152,1.4531465 77.8056541,1.27248261 78.2392474,1.27248261 C78.3837785,1.05568594 78.3837785,0.29689761 78.2392474,0.08010094 C76.7939363,0.18849927 75.0234302,0.29689761 73.578119,0.29689761 C72.1328079,0.29689761 70.326169,0.18849927 68.8808579,0.08010094 C68.7363268,0.29689761 68.7363268,1.05568594 68.8808579,1.27248261 C69.3144512,1.27248261 71.1210901,1.4531465 71.2656212,1.88673984 C71.4824179,2.53712984 71.5185507,3.62111318 71.5185507,4.92189319 L71.5185507,19.3027389 C71.5185507,20.6035189 71.4824179,21.6875022 71.2656212,22.3378922 C71.1210901,22.7714855 69.3144512,22.9160167 68.8808579,22.9160167 C68.7363268,23.1328133 68.7363268,23.8916017 68.8808579,24.1083983 C69.8203101,24.1083983 71.4824179,24.0361328 73.6142518,24.0361328 C78.4560441,24.0361328 83.5507658,24.1083983 86.0077947,24.1083983 C86.2607241,22.5185561 87.2724419,19.9531289 87.9589647,18.0019588 C87.8505664,17.8935605 87.3085747,17.7851622 86.9472469,17.7851622 C86.6943175,17.7851622 86.4775208,17.8574277 86.441388,18.0019588 C85.8632636,19.772465 85.1767408,20.8564483 84.3456869,21.5429711 C83.4062347,22.3017594 81.9247908,22.5546889 80.5517452,22.5546889 L78.311513,22.5546889 C77.0829985,22.5546889 76.2158118,22.4824233 75.8544841,22.04883 C75.6015546,21.6152366 75.6376874,19.6640666 75.6376874,19.3027389 L75.6376874,19.3027389 L75.6376874,19.3027389 Z M104.833002,0.29689761 C103.387691,0.29689761 101.54492,0.18849927 100.099608,0.08010094 C99.955077,0.29689761 99.955077,1.05568594 100.099608,1.27248261 C100.533202,1.27248261 102.375973,1.4531465 102.520505,1.88673984 C102.773434,2.53712984 102.737301,3.62111318 102.737301,4.92189319 L102.737301,14.0273533 C102.737301,17.3515688 103.532222,19.772465 105.085932,21.4707055 C106.74804,23.3134772 109.313467,24.2167967 112.131824,24.2167967 C117.55174,24.2167967 121.815408,21.1455105 121.815408,13.8466894 L121.815408,5.46388486 C121.815408,4.01857374 121.959939,2.68166096 122.249001,2.03127095 C122.538064,1.4531465 124.633765,1.23634983 125.067358,1.23634983 C125.248022,0.91115483 125.211889,0.29689761 125.067358,0.08010094 C123.477516,0.15236649 122.610329,0.29689761 120.984354,0.29689761 C119.358379,0.29689761 118.310529,0.18849927 116.720686,0.08010094 C116.612288,0.29689761 116.576155,0.98342039 116.756819,1.23634983 C117.262678,1.23634983 119.141582,1.52541206 119.394512,2.03127095 C119.719707,2.68166096 119.828105,4.05470652 119.828105,5.50001764 L119.828105,13.4492288 C119.75584,19.7363322 116.720686,21.8681661 113.396471,21.8681661 C111.625965,21.8681661 109.457998,21.39844 108.193351,19.0859422 C107.181633,17.4238344 106.856438,15.4365316 106.856438,12.6904405 L106.856438,4.92189319 C106.856438,3.62111318 106.856438,2.53712984 107.073235,1.88673984 C107.217766,1.4531465 109.060537,1.27248261 109.494131,1.27248261 C109.638662,1.05568594 109.638662,0.29689761 109.494131,0.08010094 C108.04882,0.18849927 106.278313,0.29689761 104.833002,0.29689761 L104.833002,0.29689761 L104.833002,0.29689761 Z M146.494132,-0.136695731 C142.808588,-0.136695731 139.123045,2.53712984 139.123045,6.29493876 C139.123045,9.9804821 142.194331,11.787121 144.904289,13.4853616 C147.072256,14.8222744 149.962878,16.2314527 149.962878,19.0136766 C149.962878,21.6875022 148.083974,22.9160167 146.060538,22.9160167 C142.0498,22.9160167 140.423825,19.0136766 140.134763,17.3515688 C140.09863,17.1347722 139.917966,17.0263738 139.701169,17.0263738 C139.484373,17.0263738 138.79785,17.3154361 138.689451,17.4961 C138.725584,18.2187555 139.086912,21.4707055 139.484373,23.34961 C141.435543,23.7832033 143.892572,24.3613278 146.205069,24.3613278 C150.107409,24.3613278 153.901351,21.6875022 153.901351,17.7128966 C153.901351,13.7744238 150.468737,12.0400505 148.083974,10.486341 C145.771476,8.96876433 142.953119,7.3789221 142.953119,4.81349486 C142.953119,2.71779373 144.145501,1.30861539 146.457999,1.30861539 C149.276355,1.30861539 151.010729,4.45216708 151.263658,6.36720432 C151.335924,6.69239932 152.130845,6.69239932 152.275376,6.69239932 C152.419907,6.69239932 152.636704,6.62013376 152.672837,6.43946987 C152.600571,4.84962764 152.492173,2.75392651 152.275376,0.87502205 C149.962878,0.36916316 148.662098,-0.136695731 146.494132,-0.136695731 L146.494132,-0.136695731 L146.494132,-0.136695731 Z M168.535155,0.08010094 C168.390624,0.29689761 168.390624,1.09181872 168.535155,1.30861539 C168.968748,1.30861539 170.775387,1.52541206 170.919918,1.95900539 C171.136715,2.6093954 171.172848,3.69337874 171.172848,4.99415875 L171.172848,19.2304733 C171.172848,20.5312533 171.136715,21.6152366 170.919918,22.2656267 C170.775387,22.69922 168.968748,22.9160167 168.535155,22.9160167 C168.390624,23.1328133 168.390624,23.9277344 168.535155,24.1445311 C169.980466,24.0361328 171.750972,23.9277344 173.196283,23.9277344 C174.641594,23.9277344 176.448233,24.0361328 177.893544,24.1445311 C178.038075,23.9277344 178.038075,23.1328133 177.893544,22.9160167 C177.459951,22.9160167 175.653312,22.69922 175.508781,22.2656267 C175.291984,21.6152366 175.291984,20.5312533 175.291984,19.2304733 L175.291984,12.6904405 C175.291984,12.6904405 175.255851,12.6181749 175.291984,12.5820421 C175.436515,12.5097766 175.833976,12.4013782 180.350573,12.4013782 C182.012681,12.4013782 183.710922,12.4736438 185.228498,12.5097766 C185.228498,12.5097766 185.300764,12.5820421 185.300764,12.6543077 L185.300764,19.2304733 C185.300764,20.5312533 185.264631,21.6152366 185.047834,22.2656267 C184.903303,22.69922 183.096664,22.9160167 182.663071,22.9160167 C182.51854,23.1328133 182.51854,23.9277344 182.663071,24.1445311 C184.108382,24.0361328 185.878888,23.9277344 187.324199,23.9277344 C188.76951,23.9277344 190.576149,24.0361328 192.02146,24.1445311 C192.165992,23.9277344 192.165992,23.1328133 192.02146,22.9160167 C191.587867,22.9160167 189.781228,22.69922 189.636697,22.2656267 C189.4199,21.6152366 189.4199,20.5312533 189.4199,19.2304733 L189.4199,4.99415875 C189.4199,3.69337874 189.4199,2.6093954 189.636697,1.95900539 C189.781228,1.52541206 191.587867,1.30861539 192.02146,1.30861539 C192.165992,1.09181872 192.165992,0.29689761 192.02146,0.08010094 C190.576149,0.18849927 188.805643,0.29689761 187.360332,0.29689761 C185.915021,0.29689761 184.108382,0.18849927 182.663071,0.08010094 C182.51854,0.29689761 182.51854,1.09181872 182.663071,1.30861539 C183.096664,1.30861539 184.903303,1.52541206 185.047834,1.95900539 C185.264631,2.6093954 185.300764,3.69337874 185.300764,4.99415875 L185.300764,10.6670049 C185.300764,10.7392705 185.228498,10.811536 185.228498,10.811536 C183.783187,10.8476688 181.86815,10.9199343 180.350573,10.9199343 C178.543934,10.9199343 176.917959,10.8476688 175.328117,10.811536 C175.328117,10.811536 175.291984,10.7754032 175.291984,10.7031377 L175.291984,4.99415875 C175.291984,3.69337874 175.291984,2.6093954 175.508781,1.95900539 C175.653312,1.52541206 177.459951,1.30861539 177.893544,1.30861539 C178.038075,1.09181872 178.038075,0.29689761 177.893544,0.08010094 C176.448233,0.18849927 174.677727,0.29689761 173.232416,0.29689761 C171.787105,0.29689761 169.980466,0.18849927 168.535155,0.08010094 L168.535155,0.08010094 L168.535155,0.08010094 Z" id="MILUSH" fill="#FF3878"></path>
                                <path d="M9.0351562,44 L7.51171875,44 L6.05859375,38.890625 C5.99609344,38.6679676 5.91796922,38.3466818 5.82421875,37.9267578 C5.73046828,37.5068338 5.67382822,37.2148446 5.65429688,37.0507812 C5.61523418,37.3007825 5.55175825,37.624998 5.46386719,38.0234375 C5.37597612,38.421877 5.30273467,38.718749 5.24414062,38.9140625 L3.82617188,44 L2.30273438,44 L1.1953125,39.7109375 L0.0703125,35.4335938 L1.5,35.4335938 L2.72460938,40.4257812 C2.91601658,41.2265665 3.05273396,41.9335907 3.13476562,42.546875 C3.17773459,42.2148421 3.24218707,41.8437521 3.328125,41.4335938 C3.41406293,41.0234354 3.49218715,40.6914075 3.5625,40.4375 L4.95703125,35.4335938 L6.34570312,35.4335938 L7.77539062,40.4609375 C7.91211006,40.9257836 8.05663986,41.6210891 8.20898438,42.546875 C8.26757842,41.9882785 8.40820201,41.2773481 8.63085938,40.4140625 L9.8496094,35.4335938 L11.2675781,35.4335938 L9.0351562,44 L9.0351562,44 Z M18.9261718,44 L14.0804687,44 L14.0804687,35.4335938 L18.9261718,35.4335938 L18.9261718,36.6171875 L15.4808593,36.6171875 L15.4808593,38.9492188 L18.7093749,38.9492188 L18.7093749,40.1210938 L15.4808593,40.1210938 L15.4808593,42.8105469 L18.9261718,42.8105469 L18.9261718,44 L18.9261718,44 Z M22.3777342,35.4335938 L24.9207029,35.4335938 C26.1003963,35.4335938 26.9529269,35.605467 27.4783201,35.9492188 C28.0037134,36.2929705 28.2664061,36.8359338 28.2664061,37.578125 C28.2664061,38.0781275 28.1375011,38.494139 27.8796873,38.8261719 C27.6218735,39.1582048 27.2507835,39.3671871 26.7664061,39.453125 L26.7664061,39.5117188 C27.3679716,39.6250006 27.81035,39.8486311 28.0935545,40.1826172 C28.376759,40.5166032 28.5183592,40.9687471 28.5183592,41.5390625 C28.5183592,42.3085976 28.2498072,42.9111306 27.7126951,43.3466797 C27.1755831,43.7822287 26.4285202,44 25.4714842,44 L22.3777342,44 L22.3777342,35.4335938 L22.3777342,35.4335938 Z M23.7781248,38.9726562 L25.1257811,38.9726562 C25.7117215,38.9726562 26.1394516,38.8798837 26.4089842,38.6943359 C26.6785168,38.5087881 26.8132811,38.1933616 26.8132811,37.7480469 C26.8132811,37.3457011 26.6677747,37.0546884 26.3767576,36.875 C26.0857405,36.6953116 25.6238311,36.6054688 24.9910154,36.6054688 L23.7781248,36.6054688 L23.7781248,38.9726562 L23.7781248,38.9726562 Z M23.7781248,40.109375 L23.7781248,42.8222656 L25.2664061,42.8222656 C25.8523465,42.8222656 26.2947249,42.7099621 26.5935545,42.4853516 C26.8923841,42.2607411 27.0417967,41.9062524 27.0417967,41.421875 C27.0417967,40.9765603 26.8894545,40.6464854 26.5847654,40.4316406 C26.2800764,40.2167958 25.8171904,40.109375 25.1960936,40.109375 L23.7781248,40.109375 L23.7781248,40.109375 Z M40.2613277,36.5117188 C39.4566362,36.5117188 38.82383,36.7968721 38.3628902,37.3671875 C37.9019504,37.9375029 37.671484,38.7246044 37.671484,39.7285156 C37.671484,40.7793021 37.8931615,41.5742161 38.3365231,42.1132812 C38.7798846,42.6523464 39.4214798,42.921875 40.2613277,42.921875 C40.6246108,42.921875 40.9761698,42.8857425 41.3160152,42.8134766 C41.6558607,42.7412106 42.0093728,42.6484381 42.3765621,42.5351562 L42.3765621,43.7363281 C41.7046838,43.9902356 40.9429726,44.1171875 40.0914059,44.1171875 C38.8374933,44.1171875 37.8746124,43.7373085 37.202734,42.9775391 C36.5308556,42.2177696 36.1949215,41.1308664 36.1949215,39.7167969 C36.1949215,38.8261674 36.3580058,38.0468783 36.6841793,37.3789062 C37.0103528,36.7109342 37.4820278,36.1992205 38.0992184,35.84375 C38.716409,35.4882795 39.4410111,35.3105469 40.2730465,35.3105469 C41.1480509,35.3105469 41.9566365,35.4941388 42.6988277,35.8613281 L42.1949215,37.0273438 C41.9058575,36.8906243 41.6001965,36.7705083 41.2779293,36.6669922 C40.9556621,36.563476 40.6167983,36.5117188 40.2613277,36.5117188 L40.2613277,36.5117188 L40.2613277,36.5117188 Z M53.1874995,39.7050781 C53.1874995,41.0996163 52.8388702,42.1835899 52.1416011,42.9570312 C51.444332,43.7304726 50.4570372,44.1171875 49.179687,44.1171875 C47.8867118,44.1171875 46.8935577,43.7334023 46.2001948,42.9658203 C45.506832,42.1982383 45.1601558,41.1074289 45.1601558,39.6933594 C45.1601558,38.2792898 45.5087851,37.1933632 46.2060542,36.4355469 C46.9033233,35.6777306 47.8984306,35.2988281 49.1914058,35.2988281 C50.4648496,35.2988281 51.4492148,35.6835899 52.1445308,36.453125 C52.8398467,37.2226601 53.1874995,38.3066336 53.1874995,39.7050781 L53.1874995,39.7050781 L53.1874995,39.7050781 Z M46.648437,39.7050781 C46.648437,40.7597709 46.8613255,41.5595676 47.2871089,42.1044922 C47.7128923,42.6494168 48.3437453,42.921875 49.179687,42.921875 C50.0117224,42.921875 50.6396458,42.6523464 51.0634761,42.1132812 C51.4873063,41.5742161 51.6992183,40.7714897 51.6992183,39.7050781 C51.6992183,38.6542916 51.4892594,37.8574246 51.0693355,37.3144531 C50.6494115,36.7714817 50.0234412,36.5 49.1914058,36.5 C48.3515578,36.5 47.7177751,36.7714817 47.2900386,37.3144531 C46.8623021,37.8574246 46.648437,38.6542916 46.648437,39.7050781 L46.648437,39.7050781 L46.648437,39.7050781 Z M62.2992182,38.0234375 C62.2992182,38.9179732 62.0062524,39.6035132 61.4203119,40.0800781 C60.8343715,40.556643 60.0003955,40.7949219 58.9183588,40.7949219 L58.0277338,40.7949219 L58.0277338,44 L56.6273432,44 L56.6273432,35.4335938 L59.0941401,35.4335938 C60.1644579,35.4335938 60.9662077,35.6523416 61.4994135,36.0898438 C62.0326193,36.5273459 62.2992182,37.1718707 62.2992182,38.0234375 L62.2992182,38.0234375 L62.2992182,38.0234375 Z M58.0277338,39.6171875 L58.7718744,39.6171875 C59.490628,39.6171875 60.0179665,39.4921887 60.3539057,39.2421875 C60.6898449,38.9921863 60.8578119,38.6015652 60.8578119,38.0703125 C60.8578119,37.5781225 60.7074228,37.2109387 60.4066401,36.96875 C60.1058573,36.7265613 59.637112,36.6054688 59.0003901,36.6054688 L58.0277338,36.6054688 L58.0277338,39.6171875 L58.0277338,39.6171875 Z M68.0300775,39.3417969 L70.0574212,35.4335938 L71.5808587,35.4335938 L68.7273431,40.6777344 L68.7273431,44 L67.3210931,44 L67.3210931,40.7246094 L64.4792962,35.4335938 L66.0027337,35.4335938 L68.0300775,39.3417969 L68.0300775,39.3417969 Z M82.2160149,44 L80.6925774,44 L79.2394524,38.890625 C79.176952,38.6679676 79.0988278,38.3466818 79.0050774,37.9267578 C78.9113269,37.5068338 78.8546868,37.2148446 78.8351555,37.0507812 C78.7960928,37.3007825 78.7326169,37.624998 78.6447258,38.0234375 C78.5568347,38.421877 78.4835933,38.718749 78.4249992,38.9140625 L77.0070305,44 L75.483593,44 L74.3761711,39.7109375 L73.2511711,35.4335938 L74.6808586,35.4335938 L75.905468,40.4257812 C76.0968752,41.2265665 76.2335926,41.9335907 76.3156242,42.546875 C76.3585932,42.2148421 76.4230457,41.8437521 76.5089836,41.4335938 C76.5949215,41.0234354 76.6730458,40.6914075 76.7433586,40.4375 L78.1378899,35.4335938 L79.5265617,35.4335938 L80.9562492,40.4609375 C81.0929687,40.9257836 81.2374985,41.6210891 81.389843,42.546875 C81.448437,41.9882785 81.5890606,41.2773481 81.811718,40.4140625 L83.030468,35.4335938 L84.4484367,35.4335938 L82.2160149,44 L82.2160149,44 Z M88.6617179,40.578125 L88.6617179,44 L87.2613273,44 L87.2613273,35.4335938 L89.6812491,35.4335938 C90.7867234,35.4335938 91.6050746,35.6406229 92.1363273,36.0546875 C92.6675799,36.4687521 92.9332023,37.0937458 92.9332023,37.9296875 C92.9332023,38.9960991 92.3785203,39.7558571 91.2691398,40.2089844 L93.6890616,44 L92.0953116,44 L90.0445304,40.578125 L88.6617179,40.578125 L88.6617179,40.578125 Z M88.6617179,39.4179688 L89.6343741,39.4179688 C90.2867212,39.4179688 90.7593727,39.2968762 91.0523429,39.0546875 C91.3453131,38.8124988 91.491796,38.4531274 91.491796,37.9765625 C91.491796,37.4921851 91.3335945,37.1445323 91.0171866,36.9335938 C90.7007788,36.7226552 90.2242211,36.6171875 89.5874991,36.6171875 L88.6617179,36.6171875 L88.6617179,39.4179688 L88.6617179,39.4179688 Z M96.531249,44 L96.531249,35.4335938 L97.9316397,35.4335938 L97.9316397,44 L96.531249,44 L96.531249,44 Z M104.752343,44 L103.351952,44 L103.351952,36.6347656 L100.832421,36.6347656 L100.832421,35.4335938 L107.271874,35.4335938 L107.271874,36.6347656 L104.752343,36.6347656 L104.752343,44 L104.752343,44 Z M110.184374,44 L110.184374,35.4335938 L111.584764,35.4335938 L111.584764,44 L110.184374,44 L110.184374,44 Z M122.583202,44 L120.866405,44 L116.653514,37.1738281 L116.606639,37.1738281 L116.635936,37.5546875 C116.690624,38.2812536 116.717968,38.9453095 116.717968,39.546875 L116.717968,44 L115.446483,44 L115.446483,35.4335938 L117.145702,35.4335938 L121.346874,42.2246094 L121.38203,42.2246094 C121.374217,42.1347652 121.358593,41.80762 121.335155,41.2431641 C121.311717,40.6787081 121.299999,40.2382828 121.299999,39.921875 L121.299999,35.4335938 L122.583202,35.4335938 L122.583202,44 L122.583202,44 Z M129.948827,39.3535156 L133.101171,39.3535156 L133.101171,43.6542969 C132.585543,43.8222665 132.090431,43.9414059 131.615819,44.0117188 C131.141207,44.0820316 130.628517,44.1171875 130.077733,44.1171875 C128.780852,44.1171875 127.780862,43.7334023 127.077733,42.9658203 C126.374605,42.1982383 126.023046,41.1152414 126.023046,39.7167969 C126.023046,38.3378837 126.419526,37.258793 127.212499,36.4794922 C128.005471,35.7001914 129.097257,35.3105469 130.487889,35.3105469 C131.382425,35.3105469 132.230073,35.4824202 133.030858,35.8261719 L132.538671,36.9921875 C131.843355,36.6718734 131.148049,36.5117188 130.452733,36.5117188 C129.538666,36.5117188 128.816017,36.7988253 128.284764,37.3730469 C127.753512,37.9472685 127.487889,38.7324169 127.487889,39.7285156 C127.487889,40.7753959 127.727145,41.5712863 128.205663,42.1162109 C128.684181,42.6611355 129.37265,42.9335938 130.271092,42.9335938 C130.72422,42.9335938 131.20859,42.8769537 131.724217,42.7636719 L131.724217,40.5546875 L129.948827,40.5546875 L129.948827,39.3535156 L129.948827,39.3535156 Z" id="WEB-COPYWRITING" fill="#3D3D3D"></path>
                            </g>
                        </g>
                    </g>
                </g>
            </g>
        </g>
    </g>
</svg>