<svg xmlns="http://www.w3.org/2000/svg" xmlns:xlink="http://www.w3.org/1999/xlink" xmlns:sketch="http://www.bohemiancoding.com/sketch/ns" width="244px" height="244px" viewBox="0 0 244 244" version="1.1"><!-- Generator: Sketch 3.0 (7574) - http://www.bohemiancoding.com/sketch --><title>sprite-ikony</title><description>Created with Sketch.</description><defs/><g stroke="none" stroke-width="1" fill="none" fill-rule="evenodd" sketch:type="MSPage"><g sketch:type="MSLayerGroup" transform="translate(0.000000, 40.000000)" fill="#000000"><g sketch:type="MSShapeGroup"><g><path d="M6.4284375 21.3 C6.4284375 22.2 6.1 22.9 5.5 23.6 C4.8659375 24.2 4.1 24.5 3.2 24.5 C2.320625 24.5 1.6 24.2 0.9 23.6 C0.3115625 22.9 -0 22.2 -0 21.3 C-0.0009375 20.3 0.3 19.6 0.9 18.9 C1.5615625 18.3 2.3 18 3.2 18 C4.106875 18 4.9 18.3 5.5 18.9 C6.1159375 19.6 6.4 20.3 6.4 21.3 L6.4284375 21.3 Z M6.4284375 12.5 C6.4284375 13.4 6.1 14.2 5.5 14.8 C4.8659375 15.5 4.1 15.8 3.2 15.8 C2.320625 15.8 1.6 15.5 0.9 14.8 C0.3115625 14.2 -0 13.4 -0 12.5 C-0.0009375 11.6 0.3 10.8 0.9 10.1 C1.5615625 9.5 2.3 9.2 3.2 9.2 C4.106875 9.2 4.9 9.5 5.5 10.1 C6.1159375 10.8 6.4 11.6 6.4 12.5 L6.4284375 12.5 Z M30 19.6 L30 22.9 C30 23.1 29.9 23.2 29.8 23.3 C29.734375 23.4 29.6 23.5 29.5 23.5 L9.106875 23.5 C8.961875 23.5 8.8 23.4 8.7 23.3 C8.62375 23.2 8.6 23.1 8.6 22.9 L8.570625 19.6 C8.570625 19.5 8.6 19.3 8.7 19.2 C8.83625 19.1 9 19.1 9.1 19.1 L29.46375 19.1 C29.60875 19.1 29.7 19.1 29.8 19.2 C29.946875 19.3 30 19.5 30 19.6 L30 19.6 Z M6.4284375 3.7 C6.4284375 4.6 6.1 5.4 5.5 6 C4.8659375 6.7 4.1 7 3.2 7 C2.320625 7 1.6 6.7 0.9 6 C0.3115625 5.4 -0 4.6 -0 3.7 C-0.0009375 2.8 0.3 2 0.9 1.4 C1.5615625 0.7 2.3 0.4 3.2 0.4 C4.106875 0.4 4.9 0.7 5.5 1.4 C6.1159375 2 6.4 2.8 6.4 3.7 L6.4284375 3.7 Z M30 10.8 L30 14.1 C30 14.3 29.9 14.4 29.8 14.5 C29.734375 14.6 29.6 14.7 29.5 14.7 L9.106875 14.7 C8.961875 14.7 8.8 14.6 8.7 14.5 C8.62375 14.4 8.6 14.3 8.6 14.1 L8.570625 10.8 C8.570625 10.7 8.6 10.6 8.7 10.4 C8.83625 10.3 9 10.3 9.1 10.3 L29.46375 10.3 C29.60875 10.3 29.7 10.3 29.8 10.4 C29.946875 10.6 30 10.7 30 10.8 L30 10.8 Z M30 2.1 L30 5.3 C30 5.5 29.9 5.6 29.8 5.7 C29.734375 5.8 29.6 5.9 29.5 5.9 L9.106875 5.9 C8.961875 5.9 8.8 5.8 8.7 5.7 C8.62375 5.6 8.6 5.5 8.6 5.3 L8.570625 2.1 C8.570625 1.9 8.6 1.8 8.7 1.7 C8.83625 1.6 9 1.5 9.1 1.5 L29.46375 1.5 C29.60875 1.5 29.7 1.6 29.8 1.7 C29.946875 1.8 30 1.9 30 2.1 L30 2.1 Z"/></g></g></g><g sketch:type="MSLayerGroup" fill="#000000"><path d="M47 67 C38.7 67 32 60.3 32 52 C32 43.7 38.7 37 47 37 C55.3 37 62 43.7 62 52 C62 60.3 55.3 67 47 67 L47 67 ZM47 40.5 C40.6 40.5 35.5 45.6 35.5 52 C35.5 58.4 40.6 63.5 47 63.5 C53.4 63.5 58.5 58.4 58.5 52 C58.5 45.6 53.4 40.5 47 40.5 L47 40.5 ZM52.2 56.1 L51.1 57.2 C50.9 57.5 50.5 57.5 50.3 57.2 L47 53.9 L43.7 57.2 C43.4 57.5 43.1 57.5 42.9 57.2 L41.7 56.1 C41.5 55.9 41.5 55.5 41.7 55.3 L45 52 L41.7 48.7 C41.5 48.5 41.5 48.1 41.7 47.9 L42.9 46.7 C43.1 46.5 43.4 46.5 43.7 46.7 L47 50 L50.3 46.7 C50.5 46.5 50.9 46.5 51.1 46.7 L52.2 47.9 C52.4 48.1 52.4 48.5 52.2 48.7 L48.9 52 L52.2 55.3 C52.4 55.5 52.4 55.9 52.2 56.1 L52.2 56.1 Z" sketch:type="MSShapeGroup"/></g><g sketch:type="MSLayerGroup" transform="translate(0.000000, 69.000000)"><g sketch:type="MSShapeGroup"><g><g><g><g transform="translate(-0.084507, -0.099701)"><rect fill="#1A1E3D" transform="translate(19.728004, 20.079277) rotate(45.000000) translate(-19.728004, -20.079277)" x="5.7" y="6" width="28.2" height="27.8"/><path d="M19.3830622 10.1 C19.3729214 10.2 19.4 10.3 19.4 10.3 C15.878746 10.4 13.6 12.2 12.4 13.6 C10.7886142 15.4 10 17.8 10 20.2 C9.95910952 23 10.8 25.5 12.6 27.4 C14.4184643 29.3 17.2 30.4 20.1 30.4 L20.1670968 30.4 C23.2338846 30.4 25.8 29.3 27.6 27.4 C29.3156111 25.5 30.2 23 30.2 20.2 L30.2407995 1.2 C30.1446251 1.2 30.1 1.2 30 1.2 C23.7482054 1.2 20 4.4 19.4 10.1 L19.3830622 10.1 L19.3830622 10.1 Z" fill="#1A1E3D"/><path d="M28.8914129 21 L20.7133122 21 L20.7133122 29.1 C25.2299955 29.1 28.9 25.5 28.9 21 L28.8914129 21 L28.8914129 21 Z M19.486597 19.8 L19.486597 11.7 C14.9699137 11.7 11.3 15.3 11.3 19.8 L19.486597 19.8 L19.486597 19.8 Z M20.7133122 10.5 L28.8914129 10.5 L28.8914129 2.4 C24.3747298 2.4 20.7 6 20.7 10.5 L20.7133122 10.5 L20.7133122 10.5 Z M20.6666666 11.7 L20.6666666 19.7 L28.8447675 19.7 L28.8447675 11.7 L20.6666666 11.7 L20.6666666 11.7 Z" fill="#FFFFFF"/><path d="M11.3084962 21 C11.3084962 25.5 15 29.1 19.5 29.1 L19.486597 21 L11.3084962 21 L11.3084962 21 Z" fill="#F38433"/></g></g></g></g></g></g><path d="M87 34 C96.3888407 34 104 26.4 104 17 C104 7.6 96.4 0 87 0 C77.6111593 0 70 7.6 70 17 C70 26.4 77.6 34 87 34 L87 34 Z M94.4967033 7.8 L92.0597802 7.8 C91.4484725 7.8 91.2 8.2 91.2 8.7 L91.1736264 25.6 L95.6043956 25.6 L95.6043956 8.7 C95.6043956 8.2 95.1 7.8 94.5 7.8 L94.4967033 7.8 L94.4967033 7.8 Z M87.8505495 13.7 L85.4136264 13.7 C84.8023187 13.7 84.5 14.2 84.5 14.7 L84.5274725 25.6 L88.9582418 25.6 L88.9582418 14.7 C88.9582418 14.2 88.5 13.7 87.9 13.7 L87.8505495 13.7 L87.8505495 13.7 Z M81.2043956 19.7 L78.7674725 19.7 C78.1561648 19.7 77.9 20.1 77.9 20.7 L77.8813187 25.6 L82.3120879 25.6 L82.3120879 20.7 C82.3120879 20.1 81.8 19.7 81.2 19.7 L81.2043956 19.7 L81.2043956 19.7 Z" fill="#FF3878" sketch:type="MSShapeGroup"/><g sketch:type="MSLayerGroup" transform="translate(82.000000, 111.000000)" fill="#FF3878"><g sketch:type="MSShapeGroup"><g transform="translate(-0.024521, 0.000000)"><g><path d="M67.4332444 35.1 C68.1329778 37.8 68.5 40.6 68.5 43.6 C68.5059556 62.2 53.5 77.4 35.1 77.4 C16.6261333 77.4 1.6 62.2 1.6 43.6 C1.62488889 24.9 16.6 9.8 35.1 9.8 C38.6122667 9.8 42 10.3 45.2 11.4 C45.4520889 10.8 45.7 10.3 46 9.7 C42.5237333 8.6 38.9 8 35.1 8 C15.6462222 8 -0.2 24 -0.2 43.6 C-0.152888889 63.2 15.6 79.2 35.1 79.2 C54.4846222 79.2 70.3 63.2 70.3 43.6 C70.2833778 40.4 69.9 37.4 69.1 34.5 C68.5628444 34.7 68 34.9 67.4 35.1 L67.4332444 35.1 Z"/><path d="M19.344 28.2 C16.4476444 28.2 14.1 30.6 14.1 33.5 L14.0995556 50.9 C14.0995556 53.8 16.4 56.2 19.3 56.2 L50.8106667 56.2 C53.7070222 56.2 56.1 53.8 56.1 50.9 L56.0551111 33.5 C56.0551111 30.6 53.7 28.2 50.8 28.2 L19.344 28.2 L19.344 28.2 Z M16.5884444 35.4 L26.1884444 42.6 L16.5884444 49.8 L16.5884444 35.4 L16.5884444 35.4 Z M52.8551111 51.1 C52.8551111 52.5 51.7 53.7 50.3 53.7 L19.1786667 53.7 C17.7500444 53.7 16.6 52.5 16.6 51.1 L26.7328 43.3 L32.3904 47.6 C33.0805333 48.2 33.9 48.4 34.7 48.4 C35.5420444 48.4 36.4 48.2 37.1 47.6 L42.7107556 43.3 L52.8551111 51.1 L52.8551111 51.1 Z M53.9217778 49.8 L44.3217778 42.6 L53.9217778 35.4 L53.9217778 49.8 L53.9217778 49.8 Z M36.2744889 46.3 C35.8225778 46.7 35.3 46.9 34.7 46.9 C34.1571556 46.9 33.6 46.7 33.2 46.3 L16.5884444 33.4 C16.5884444 31.9 17.8 30.7 19.2 30.7 L50.2648889 30.7 C51.6920889 30.7 52.9 31.9 52.9 33.4 L36.2744889 46.3 L36.2744889 46.3 Z"/><path d="M72.1162667 8.1 C71.6209778 0.6 65.7 4.6 65.7 4.6 C71.3237333 5.2 72.1 8.1 72.1 8.1 L72.1162667 8.1 L72.1162667 8.1 Z"/><path d="M74.2581333 5 C73.4332444 6.3 72.6 7.5 72.1 8.1 C72.5614222 11.8 69.9 22 69.9 22 C69.8961778 22 61.3 23 56.8 30.7 C56.8245333 30.7 56.3 30.8 55.6 30.7 L62.0444444 18.5 C62.6151111 18.6 63.2 18.4 63.8 18.2 C65.4151111 17.4 66.2 15.7 65.6 14.4 C64.9184 13 63.1 12.5 61.5 13.3 C59.8602667 14 59.1 15.7 59.7 17.1 C59.8901333 17.5 60.2 17.8 60.5 18 L53.8549333 29.9 C53.3240889 29.5 53.1 29 53.1 29 C53.1118222 29 56.9 22.1 54.7 14.2 C54.7409778 14.2 62.8 4.6 65.5 4.6 L65.6593778 4.6 C66.0259556 3.8 66.7 2.3 67.5 0.8 C65.6732444 0.2 63.7 -0.2 61.7 -0.2 C51.6821333 -0.2 43.6 8 43.6 18.1 C43.5733333 28.3 51.7 36.5 61.7 36.5 C71.6864 36.5 79.8 28.3 79.8 18.1 C79.7952 13 77.7 8.3 74.3 5 L74.2581333 5 L74.2581333 5 Z"/></g></g></g></g><path d="M52 34 C61.3888407 34 69 26.4 69 17 C69 7.6 61.4 0 52 0 C42.6111593 0 35 7.6 35 17 C35 26.4 42.6 34 52 34 L52 34 Z M57.2376926 11.3 C57.2376926 14.2 54.9 18.2 52.1 18.2 C49.2973761 18.2 47 14.2 47 11.3 C47.0072749 8.3 49.3 6 52.1 6 C54.9478318 6 57.2 8.3 57.2 11.3 L57.2376926 11.3 Z M55.9897052 17 C54.9574521 18.3 53.6 19.3 52.1 19.3 C50.6403635 19.3 49.3 18.3 48.3 17 C44.9555154 18.4 42.7 21.2 42.7 23.2 C42.6553128 25.8 46.9 27.9 52.1 27.9 C57.3512116 27.9 61.6 25.8 61.6 23.2 C61.5898951 21.2 59.3 18.4 56 17 L55.9897052 17 Z" fill="#FF3878" sketch:type="MSShapeGroup"/><path d="M122 34 C131.388841 34 139 26.4 139 17 C139 7.6 131.4 0 122 0 C112.611159 0 105 7.6 105 17 C105 26.4 112.6 34 122 34 L122 34 Z M128.090454 15.2 C128.090454 11.8 124.4 9 120 9 C115.468924 9 111.8 11.8 111.8 15.2 C111.828571 17.3 113.1 19.1 115.2 20.3 C115.161571 20.3 113.6 23.3 113.6 23.3 C113.554924 23.3 118.5 21.4 118.5 21.4 C118.955924 21.4 119.5 21.5 120 21.5 C124.449454 21.5 128.1 18.7 128.1 15.2 L128.090454 15.2 L128.090454 15.2 Z M134.077689 17.2 C134.077689 13.7 130.7 11 126.9 10.9 C132.258807 16.4 126 22.2 120.9 22.2 C120.889336 22.2 121.5 23.4 125.9 23.4 C126.453395 23.4 127 23.4 127.4 23.3 C127.445336 23.3 132.4 25.2 132.4 25.2 C132.351983 25.2 130.7 22.2 130.7 22.2 C132.762866 21.1 134.1 19.3 134.1 17.2 L134.077689 17.2 L134.077689 17.2 Z" fill="#FF3878" sketch:type="MSShapeGroup"/><g sketch:type="MSLayerGroup" transform="translate(164.000000, 111.000000)" fill="#FF3878"><g sketch:type="MSShapeGroup"><g transform="translate(-0.024521, 0.000000)"><g><path d="M67.4332444 35.1 C68.1329778 37.8 68.5 40.6 68.5 43.6 C68.5059556 62.2 53.5 77.4 35.1 77.4 C16.6261333 77.4 1.6 62.2 1.6 43.6 C1.62488889 24.9 16.6 9.8 35.1 9.8 C38.6122667 9.8 42 10.3 45.2 11.4 C45.4520889 10.8 45.7 10.3 46 9.7 C42.5237333 8.6 38.9 8 35.1 8 C15.6462222 8 -0.2 24 -0.2 43.6 C-0.152888889 63.2 15.6 79.2 35.1 79.2 C54.4846222 79.2 70.3 63.2 70.3 43.6 C70.2833778 40.4 69.9 37.4 69.1 34.5 C68.5628444 34.7 68 34.9 67.4 35.1 L67.4332444 35.1 Z"/><g transform="translate(13.866667, 28.368182)"><g><path d="M6.8736 17.2 L32.6353778 17.2 L32.6353778 19 L6.8736 19 L6.8736 17.2 L6.8736 17.2 Z M6.8736 13.8 L32.6353778 13.8 L32.6353778 15.5 L6.8736 15.5 L6.8736 13.8 L6.8736 13.8 Z M6.8736 8.5 L27.4833778 8.5 L27.4833778 12 L6.8736 12 L6.8736 8.5 L6.8736 8.5 Z M37.6277333 26.5 L16.8636444 26.8 L7.8048 32.8 L7.8048 26.5 L4.85511111 26.5 C3.79235556 26.5 2.9 25.7 2.9 24.7 L2.92764444 4.4 C2.92764444 3.4 3.8 2.6 4.9 2.6 L37.6280889 2.6 C38.6908444 2.6 39.6 3.4 39.6 4.4 L39.5555556 24.7 C39.5552 25.7 38.7 26.5 37.6 26.5 L37.6277333 26.5 Z M5.53315556 -0.2 C2.48533333 -0.2 0 2.2 0 5.1 L0.00426666667 25.9 C0.00426666667 28.8 3.7 29.4 5.5 29.4 L5.53315556 37.1 L17.7418667 29.4 L36.8636444 29.4 C39.9114667 29.4 42.4 27.1 42.4 24.2 L42.3928889 5.1 C42.3928889 2.2 39.9 -0.2 36.9 -0.2 L5.53315556 -0.2 L5.53315556 -0.2 Z"/></g></g><path d="M72.1162667 8.1 C71.6209778 0.6 65.7 4.6 65.7 4.6 C71.3237333 5.2 72.1 8.1 72.1 8.1 L72.1162667 8.1 L72.1162667 8.1 Z"/><path d="M74.2581333 5 C73.4332444 6.3 72.6 7.5 72.1 8.1 C72.5614222 11.8 69.9 22 69.9 22 C69.8961778 22 61.3 23 56.8 30.7 C56.8245333 30.7 56.3 30.8 55.6 30.7 L62.0444444 18.5 C62.6151111 18.6 63.2 18.4 63.8 18.2 C65.4151111 17.4 66.2 15.7 65.6 14.4 C64.9184 13 63.1 12.5 61.5 13.3 C59.8602667 14 59.1 15.7 59.7 17.1 C59.8901333 17.5 60.2 17.8 60.5 18 L53.8549333 29.9 C53.3240889 29.5 53.1 29 53.1 29 C53.1118222 29 56.9 22.1 54.7 14.2 C54.7409778 14.2 62.8 4.6 65.5 4.6 L65.6593778 4.6 C66.0259556 3.8 66.7 2.3 67.5 0.8 C65.6732444 0.2 63.7 -0.2 61.7 -0.2 C51.6821333 -0.2 43.6 8 43.6 18.1 C43.5733333 28.3 51.7 36.5 61.7 36.5 C71.6864 36.5 79.8 28.3 79.8 18.1 C79.7952 13 77.7 8.3 74.3 5 L74.2581333 5 L74.2581333 5 Z"/></g></g></g></g><path d="M17 34 C26.3888407 34 34 26.4 34 17 C34 7.6 26.4 0 17 0 C7.61115925 0 0 7.6 0 17 C0 26.4 7.6 34 17 34 L17 34 Z M13.6995299 14.5 C11.1072479 14.5 9 13.9 9 13.3 L9.00597314 14.8 C9.00597314 15.5 11.1 16 13.7 16 C16.291812 16 18.4 15.5 18.4 14.8 L18.3930867 13.3 C18.3930867 13.9 16.3 14.5 13.7 14.5 L13.6995299 14.5 Z M13.6995299 17.5 C11.1072479 17.5 9 17 9 16.3 L9.00597314 17.9 C9.00597314 18.5 11.1 19.1 13.7 19.1 C16.291812 19.1 18.4 18.5 18.4 17.9 L18.3930867 16.3 C18.3930867 17 16.3 17.5 13.7 17.5 L13.6995299 17.5 Z M13.6995299 20.6 C11.1072479 20.6 9 20.1 9 19.4 L9.00597314 20.9 C9.00597314 21.6 11.1 22.1 13.7 22.1 C16.291812 22.1 18.4 21.6 18.4 20.9 L18.3930867 19.4 C18.3930867 20.1 16.3 20.6 13.7 20.6 L13.6995299 20.6 Z M13.6995299 23.7 C11.1072479 23.7 9 23.1 9 22.5 L9.00597314 24 C9.00597314 24.7 11.1 25.2 13.7 25.2 C16.291812 25.2 18.4 24.7 18.4 24 L18.3930867 22.5 C18.3930867 23.1 16.3 23.7 13.7 23.7 L13.6995299 23.7 Z M13.6995299 9 C11.1072479 9 9 9.5 9 10.2 L9.00597314 11.7 C9.00597314 12.4 11.1 12.9 13.7 12.9 C16.291812 12.9 18.4 12.4 18.4 11.7 L18.3930867 10.2 C18.3930867 9.5 16.3 9 13.7 9 L13.6995299 9 Z M24.0879829 18.2 C21.8798303 18.2 20.1 17.8 20.1 17.2 L20.0897241 18.5 C20.0897241 19.1 21.9 19.5 24.1 19.5 C26.2961355 19.5 28.1 19.1 28.1 18.5 L28.0862418 17.2 C28.0862418 17.8 26.3 18.2 24.1 18.2 L24.0879829 18.2 Z M24.0879829 20.8 C21.8798303 20.8 20.1 20.4 20.1 19.8 L20.0897241 21.1 C20.0897241 21.7 21.9 22.2 24.1 22.2 C26.2961355 22.2 28.1 21.7 28.1 21.1 L28.0862418 19.8 C28.0862418 20.4 26.3 20.8 24.1 20.8 L24.0879829 20.8 Z M24.0879829 13.6 C21.8798303 13.6 20.1 14 20.1 14.6 L20.0897241 15.9 C20.0897241 16.5 21.9 16.9 24.1 16.9 C26.2961355 16.9 28.1 16.5 28.1 15.9 L28.0862418 14.6 C28.0862418 14 26.3 13.6 24.1 13.6 L24.0879829 13.6 Z" fill="#FF3878" sketch:type="MSShapeGroup"/><g sketch:type="MSLayerGroup" transform="translate(0.000000, 111.000000)" fill="#FF3878"><g sketch:type="MSShapeGroup"><g transform="translate(-0.024521, 0.000000)"><g><path d="M67.4332444 35.1 C68.1329778 37.8 68.5 40.6 68.5 43.6 C68.5059556 62.2 53.5 77.4 35.1 77.4 C16.6261333 77.4 1.6 62.2 1.6 43.6 C1.62488889 24.9 16.6 9.8 35.1 9.8 C38.6122667 9.8 42 10.3 45.2 11.4 C45.4520889 10.8 45.7 10.3 46 9.7 C42.5237333 8.6 38.9 8 35.1 8 C15.6462222 8 -0.2 24 -0.2 43.6 C-0.152888889 63.2 15.6 79.2 35.1 79.2 C54.4846222 79.2 70.3 63.2 70.3 43.6 C70.2833778 40.4 69.9 37.4 69.1 34.5 C68.5628444 34.7 68 34.9 67.4 35.1 L67.4332444 35.1 Z"/><path d="M38.4014222 60.9 L33.5456 60.9 L33.5456 63.2 L28.6897778 63.9 L28.6897778 65.4 L43.1573333 65.4 L43.1573333 64 L38.4017778 63.2 L38.4014222 60.9 L38.4014222 60.9 Z M53.5008 28.2 L17.3646222 28.2 C15.6284444 28.2 14.2 29.6 14.2 31.3 L14.2222222 53.1 C14.2222222 54.8 15.6 56.2 17.4 56.2 L53.5008 56.2 C55.2376889 56.2 56.6 54.8 56.6 53.1 L56.6435556 31.3 C56.6435556 29.6 55.2 28.2 53.5 28.2 L53.5008 28.2 L53.5008 28.2 Z M35.4328889 53.5 C34.6883556 53.5 34.1 52.9 34.1 52.1 C34.0842667 51.4 34.7 50.8 35.4 50.8 C36.1784889 50.8 36.8 51.4 36.8 52.1 C36.7815111 52.9 36.2 53.5 35.4 53.5 L35.4328889 53.5 L35.4328889 53.5 Z M52.9653333 48.3 L16.9194667 48.3 L16.9194667 30.9 L52.9653333 30.9 L52.9653333 48.3 L52.9653333 48.3 Z"/><path d="M72.1162667 8.1 C71.6209778 0.6 65.7 4.6 65.7 4.6 C71.3237333 5.2 72.1 8.1 72.1 8.1 L72.1162667 8.1 L72.1162667 8.1 Z"/><path d="M74.2581333 5 C73.4332444 6.3 72.6 7.5 72.1 8.1 C72.5614222 11.8 69.9 22 69.9 22 C69.8961778 22 61.3 23 56.8 30.7 C56.8245333 30.7 56.3 30.8 55.6 30.7 L62.0444444 18.5 C62.6151111 18.6 63.2 18.4 63.8 18.2 C65.4151111 17.4 66.2 15.7 65.6 14.4 C64.9184 13 63.1 12.5 61.5 13.3 C59.8602667 14 59.1 15.7 59.7 17.1 C59.8901333 17.5 60.2 17.8 60.5 18 L53.8549333 29.9 C53.3240889 29.5 53.1 29 53.1 29 C53.1118222 29 56.9 22.1 54.7 14.2 C54.7409778 14.2 62.8 4.6 65.5 4.6 L65.6593778 4.6 C66.0259556 3.8 66.7 2.3 67.5 0.8 C65.6732444 0.2 63.7 -0.2 61.7 -0.2 C51.6821333 -0.2 43.6 8 43.6 18.1 C43.5733333 28.3 51.7 36.5 61.7 36.5 C71.6864 36.5 79.8 28.3 79.8 18.1 C79.7952 13 77.7 8.3 74.3 5 L74.2581333 5 L74.2581333 5 Z"/></g></g></g></g><g sketch:type="MSLayerGroup" transform="translate(0.000000, 194.000000)"><g sketch:type="MSShapeGroup"><g><g fill="#FFFFFF"><path d="M36.4 15.3 L13.8 15.3 C11.8 15.3 10.1 17 10.1 19.1 L10.1 31.3 C10.1 33.4 11.8 35.1 13.9 35.1 L36.4 35.1 C38.5 35.1 40.2 33.4 40.2 31.3 L40.2 19.1 C40.2 17 38.5 15.3 36.5 15.3 L36.4 15.3 L36.4 15.3 ZM12 20.2 L18.6 25.2 L12 30.1 L12 20.2 L12 20.2 ZM38.3 31.3 C38.3 32.4 37.5 33.2 36.5 33.2 L13.8 33.2 C12.8 33.2 12 32.4 12 31.3 L19.3 25.8 L23.4 28.9 C24 29.2 24.6 29.4 25.2 29.4 C25.7 29.4 26.4 29.2 26.9 28.9 L30.9 25.8 L38.3 31.3 L38.3 31.3 ZM38.3 30.1 L31.7 25.2 L38.3 20.2 L38.3 30.1 L38.3 30.1 ZM26.3 28.1 C25.9 28.4 25.6 28.5 25.2 28.5 C24.7 28.5 24.4 28.4 24 28.1 L12 19.1 C12 18 12.8 17.2 13.9 17.2 L36.4 17.2 C37.5 17.2 38.3 18 38.3 19.1 L26.3 28.1 L26.3 28.1 Z"/></g><path d="M50 25 C50 11.2 38.8 0 25 0 C11.1928813 0 0 11.2 0 25 C0 38.8 11.2 50 25 50 C38.8071187 50 50 38.8 50 25 Z M1.92307692 25 C1.92307692 12.3 12.3 1.9 25 1.9 C37.7450326 1.9 48.1 12.3 48.1 25 C48.0769231 37.7 37.7 48.1 25 48.1 C12.2549673 48.1 1.9 37.7 1.9 25 Z" fill="#E4E4E4"/></g></g></g><g sketch:type="MSLayerGroup" transform="translate(52.000000, 194.000000)"><g sketch:type="MSShapeGroup"><g><g fill="#FEFEFE"><path d="M29.1 30.2 C28.6 30.8 28.3 31 27.8 31 C26.5 31 25.3 30.1 22.7 27.5 C21.3 26.1 20.7 25.5 20.2 24.7 C19.5 23.8 19.1 23 19.1 22.4 C19.1 21.8 19.3 21.5 20 21.1 C21.1 20.4 21.9 19.9 22.7 19.1 C23.9 17.9 23.2 15.8 21.3 13.6 C19.7 11.8 17.7 10.3 16.5 10.3 C15.7 10.3 14.7 10.9 13.7 12 C13.3 12.4 12.8 12.9 12.4 13.4 C11.9 14 11.3 14.7 10.9 15.4 C10.7 15.6 10.5 15.8 10.4 16 C10.4 16.1 10.3 16.2 10.3 16.2 C10.3 16.3 10.1 16.5 10.1 16.5 L10.1 16.7 C10.1 20.7 14 28.5 17.9 32.3 C21.7 36.1 29.5 40.1 33.4 40.1 L33.7 40.1 L33.9 39.9 C34 39.9 34 39.8 34.1 39.8 C34.3 39.6 34.5 39.5 34.8 39.3 C35.5 38.8 36.1 38.3 36.7 37.8 C37.3 37.3 37.7 36.9 38.2 36.5 C39.3 35.4 39.8 34.5 39.8 33.7 C39.9 32.5 38.4 30.4 36.5 28.9 C34.4 27 32.3 26.2 31 27.5 C30.3 28.3 29.7 29 29.1 30.2 L29.1 30.2 ZM35.6 30 C37.1 31.3 38.3 33 38.3 33.7 C38.4 34 37.9 34.6 37.1 35.4 C36.7 35.8 36.3 36.2 35.8 36.6 C35.2 37.1 34.5 37.6 33.9 38.1 C33.7 38.3 33.4 38.4 33.3 38.5 C33.2 38.6 33.1 38.7 33 38.7 L33.5 38.6 C29.9 38.6 22.5 34.8 18.9 31.3 C15.4 27.7 11.6 20.2 11.6 16.7 L11.5 17.1 C11.5 17.1 11.6 17 11.6 16.9 C11.8 16.7 11.9 16.5 12.1 16.3 C12.6 15.6 13 15 13.5 14.4 C14 13.9 14.4 13.4 14.7 13 C15.5 12.2 16.2 11.8 16.5 11.8 C17.1 11.8 18.8 13.1 20.2 14.6 C21.6 16.2 22.1 17.6 21.6 18.1 C21 18.7 20.3 19.1 19.1 19.9 C18.1 20.5 17.6 21.2 17.6 22.4 C17.6 23.4 18.1 24.5 19 25.6 C19.6 26.5 20.2 27.1 21.6 28.5 C23.1 30 23.7 30.6 24.5 31.2 C25.7 32.1 26.7 32.5 27.8 32.5 C28.9 32.5 29.6 32.1 30.3 31 C31 29.8 31.4 29.2 32.1 28.5 C32.6 28.1 33.9 28.6 35.5 30 L35.6 30 Z"/></g><path d="M50 25 C50 11.2 38.8 0 25 0 C11.1928813 0 0 11.2 0 25 C0 38.8 11.2 50 25 50 C38.8071187 50 50 38.8 50 25 Z M1.92307692 25 C1.92307692 12.3 12.3 1.9 25 1.9 C37.7450326 1.9 48.1 12.3 48.1 25 C48.0769231 37.7 37.7 48.1 25 48.1 C12.2549673 48.1 1.9 37.7 1.9 25 Z" fill="#E3E3E3"/></g></g></g></g></svg>